<svg xmlns="http://www.w3.org/2000/svg" xmlns:xlink="http://www.w3.org/1999/xlink" width="220" zoomAndPan="magnify" viewBox="0 0 165 82.499998" height="110" preserveAspectRatio="xMidYMid meet" version="1.0"><defs><clipPath id="b70f79481b"><path d="M 0.496094 0 L 164.503906 0 L 164.503906 82.003906 L 0.496094 82.003906 Z M 0.496094 0 " clip-rule="nonzero"/></clipPath><clipPath id="91490acb54"><path d="M 15 33 L 30 33 L 30 40 L 15 40 Z M 15 33 " clip-rule="nonzero"/></clipPath><clipPath id="2efbed188a"><path d="M 15.816406 38.265625 C 16.46875 38.800781 17.253906 39.316406 18.210938 39.777344 C 18.914062 38.421875 21.613281 35.019531 29.226562 36.019531 L 28.546875 33.402344 C 19.082031 32.59375 16.371094 37.046875 15.804688 38.265625 Z M 15.816406 38.265625 " clip-rule="nonzero"/></clipPath><linearGradient x1="103.168477" gradientTransform="matrix(1.0503, 0, 0, 1.049975, -91.671787, -77.536609)" y1="103.833199" x2="114.341841" gradientUnits="userSpaceOnUse" y2="112.698186" id="4b714fc7de"><stop stop-opacity="1" stop-color="rgb(61.164856%, 19.219971%, 87.911987%)" offset="0"/><stop stop-opacity="1" stop-color="rgb(61.048889%, 19.25354%, 87.916565%)" offset="0.015625"/><stop stop-opacity="1" stop-color="rgb(60.816956%, 19.32373%, 87.927246%)" offset="0.03125"/><stop stop-opacity="1" stop-color="rgb(60.585022%, 19.393921%, 87.936401%)" offset="0.046875"/><stop stop-opacity="1" stop-color="rgb(60.353088%, 19.462585%, 87.945557%)" offset="0.0625"/><stop stop-opacity="1" stop-color="rgb(60.121155%, 19.532776%, 87.954712%)" offset="0.078125"/><stop stop-opacity="1" stop-color="rgb(59.889221%, 19.60144%, 87.965393%)" offset="0.09375"/><stop stop-opacity="1" stop-color="rgb(59.657288%, 19.671631%, 87.974548%)" offset="0.109375"/><stop stop-opacity="1" stop-color="rgb(59.425354%, 19.741821%, 87.983704%)" offset="0.125"/><stop stop-opacity="1" stop-color="rgb(59.19342%, 19.810486%, 87.994385%)" offset="0.140625"/><stop stop-opacity="1" stop-color="rgb(58.961487%, 19.880676%, 88.00354%)" offset="0.15625"/><stop stop-opacity="1" stop-color="rgb(58.729553%, 19.949341%, 88.012695%)" offset="0.171875"/><stop stop-opacity="1" stop-color="rgb(58.49762%, 20.019531%, 88.021851%)" offset="0.1875"/><stop stop-opacity="1" stop-color="rgb(58.265686%, 20.089722%, 88.032532%)" offset="0.203125"/><stop stop-opacity="1" stop-color="rgb(58.033752%, 20.158386%, 88.041687%)" offset="0.21875"/><stop stop-opacity="1" stop-color="rgb(57.801819%, 20.228577%, 88.050842%)" offset="0.234375"/><stop stop-opacity="1" stop-color="rgb(57.569885%, 20.297241%, 88.061523%)" offset="0.25"/><stop stop-opacity="1" stop-color="rgb(57.337952%, 20.367432%, 88.070679%)" offset="0.265625"/><stop stop-opacity="1" stop-color="rgb(57.106018%, 20.437622%, 88.079834%)" offset="0.28125"/><stop stop-opacity="1" stop-color="rgb(56.874084%, 20.506287%, 88.088989%)" offset="0.296875"/><stop stop-opacity="1" stop-color="rgb(56.642151%, 20.576477%, 88.09967%)" offset="0.298067"/><stop stop-opacity="1" stop-color="rgb(56.526184%, 20.611572%, 88.104248%)" offset="0.3125"/><stop stop-opacity="1" stop-color="rgb(56.410217%, 20.645142%, 88.108826%)" offset="0.328125"/><stop stop-opacity="1" stop-color="rgb(56.178284%, 20.715332%, 88.117981%)" offset="0.34375"/><stop stop-opacity="1" stop-color="rgb(55.94635%, 20.785522%, 88.128662%)" offset="0.359375"/><stop stop-opacity="1" stop-color="rgb(55.714417%, 20.854187%, 88.137817%)" offset="0.375"/><stop stop-opacity="1" stop-color="rgb(55.482483%, 20.924377%, 88.146973%)" offset="0.390625"/><stop stop-opacity="1" stop-color="rgb(55.250549%, 20.993042%, 88.157654%)" offset="0.40625"/><stop stop-opacity="1" stop-color="rgb(55.018616%, 21.063232%, 88.166809%)" offset="0.421875"/><stop stop-opacity="1" stop-color="rgb(54.786682%, 21.133423%, 88.175964%)" offset="0.4375"/><stop stop-opacity="1" stop-color="rgb(54.554749%, 21.202087%, 88.18512%)" offset="0.453125"/><stop stop-opacity="1" stop-color="rgb(54.322815%, 21.272278%, 88.195801%)" offset="0.46875"/><stop stop-opacity="1" stop-color="rgb(54.090881%, 21.340942%, 88.204956%)" offset="0.484375"/><stop stop-opacity="1" stop-color="rgb(53.858948%, 21.411133%, 88.214111%)" offset="0.5"/><stop stop-opacity="1" stop-color="rgb(53.627014%, 21.481323%, 88.224792%)" offset="0.515625"/><stop stop-opacity="1" stop-color="rgb(53.395081%, 21.549988%, 88.233948%)" offset="0.53125"/><stop stop-opacity="1" stop-color="rgb(53.163147%, 21.620178%, 88.243103%)" offset="0.546875"/><stop stop-opacity="1" stop-color="rgb(52.931213%, 21.688843%, 88.252258%)" offset="0.5625"/><stop stop-opacity="1" stop-color="rgb(52.69928%, 21.759033%, 88.262939%)" offset="0.578125"/><stop stop-opacity="1" stop-color="rgb(52.467346%, 21.829224%, 88.272095%)" offset="0.59375"/><stop stop-opacity="1" stop-color="rgb(52.235413%, 21.897888%, 88.28125%)" offset="0.609375"/><stop stop-opacity="1" stop-color="rgb(52.003479%, 21.968079%, 88.291931%)" offset="0.625"/><stop stop-opacity="1" stop-color="rgb(51.771545%, 22.036743%, 88.301086%)" offset="0.640625"/><stop stop-opacity="1" stop-color="rgb(51.539612%, 22.106934%, 88.310242%)" offset="0.65625"/><stop stop-opacity="1" stop-color="rgb(51.307678%, 22.175598%, 88.319397%)" offset="0.671875"/><stop stop-opacity="1" stop-color="rgb(51.075745%, 22.245789%, 88.330078%)" offset="0.6875"/><stop stop-opacity="1" stop-color="rgb(50.843811%, 22.315979%, 88.339233%)" offset="0.701933"/><stop stop-opacity="1" stop-color="rgb(50.727844%, 22.351074%, 88.343811%)" offset="0.703125"/><stop stop-opacity="1" stop-color="rgb(50.611877%, 22.384644%, 88.348389%)" offset="0.71875"/><stop stop-opacity="1" stop-color="rgb(50.379944%, 22.454834%, 88.35907%)" offset="0.734375"/><stop stop-opacity="1" stop-color="rgb(50.14801%, 22.523499%, 88.368225%)" offset="0.75"/><stop stop-opacity="1" stop-color="rgb(49.916077%, 22.593689%, 88.37738%)" offset="0.765625"/><stop stop-opacity="1" stop-color="rgb(49.684143%, 22.663879%, 88.386536%)" offset="0.78125"/><stop stop-opacity="1" stop-color="rgb(49.452209%, 22.732544%, 88.397217%)" offset="0.796875"/><stop stop-opacity="1" stop-color="rgb(49.220276%, 22.802734%, 88.406372%)" offset="0.8125"/><stop stop-opacity="1" stop-color="rgb(48.988342%, 22.871399%, 88.415527%)" offset="0.828125"/><stop stop-opacity="1" stop-color="rgb(48.756409%, 22.941589%, 88.426208%)" offset="0.84375"/><stop stop-opacity="1" stop-color="rgb(48.524475%, 23.01178%, 88.435364%)" offset="0.859375"/><stop stop-opacity="1" stop-color="rgb(48.292542%, 23.080444%, 88.444519%)" offset="0.875"/><stop stop-opacity="1" stop-color="rgb(48.060608%, 23.150635%, 88.453674%)" offset="0.890625"/><stop stop-opacity="1" stop-color="rgb(47.828674%, 23.219299%, 88.464355%)" offset="0.90625"/><stop stop-opacity="1" stop-color="rgb(47.596741%, 23.28949%, 88.473511%)" offset="0.921875"/><stop stop-opacity="1" stop-color="rgb(47.364807%, 23.35968%, 88.482666%)" offset="0.9375"/><stop stop-opacity="1" stop-color="rgb(47.132874%, 23.428345%, 88.493347%)" offset="0.953125"/><stop stop-opacity="1" stop-color="rgb(46.90094%, 23.498535%, 88.502502%)" offset="0.96875"/><stop stop-opacity="1" stop-color="rgb(46.669006%, 23.5672%, 88.511658%)" offset="0.984375"/><stop stop-opacity="1" stop-color="rgb(46.437073%, 23.63739%, 88.520813%)" offset="1"/></linearGradient><clipPath id="d1c6c1fd57"><path d="M 12 28 L 28 28 L 28 37 L 12 37 Z M 12 28 " clip-rule="nonzero"/></clipPath><clipPath id="8b7a654543"><path d="M 14.113281 36.878906 C 15.175781 34.957031 18.796875 31.007812 27.820312 31.882812 L 26.664062 29.035156 C 26.664062 29.035156 17.203125 27.945312 12.433594 34.128906 C 12.601562 34.621094 13.0625 35.703125 14.113281 36.878906 Z M 14.113281 36.878906 " clip-rule="nonzero"/></clipPath><linearGradient x1="99.722983" gradientTransform="matrix(1.0503, 0, 0, 1.049975, -91.671787, -77.536609)" y1="99.700016" x2="112.857077" gradientUnits="userSpaceOnUse" y2="110.120657" id="bedf11d8cd"><stop stop-opacity="1" stop-color="rgb(63.899231%, 18.399048%, 87.799072%)" offset="0"/><stop stop-opacity="1" stop-color="rgb(63.899231%, 18.399048%, 87.799072%)" offset="0.125"/><stop stop-opacity="1" stop-color="rgb(63.899231%, 18.399048%, 87.799072%)" offset="0.15625"/><stop stop-opacity="1" stop-color="rgb(63.772583%, 18.437195%, 87.80365%)" offset="0.171875"/><stop stop-opacity="1" stop-color="rgb(63.510132%, 18.515015%, 87.814331%)" offset="0.1875"/><stop stop-opacity="1" stop-color="rgb(63.237%, 18.597412%, 87.826538%)" offset="0.203125"/><stop stop-opacity="1" stop-color="rgb(62.963867%, 18.67981%, 87.837219%)" offset="0.21875"/><stop stop-opacity="1" stop-color="rgb(62.692261%, 18.760681%, 87.849426%)" offset="0.234375"/><stop stop-opacity="1" stop-color="rgb(62.419128%, 18.843079%, 87.860107%)" offset="0.25"/><stop stop-opacity="1" stop-color="rgb(62.145996%, 18.92395%, 87.870789%)" offset="0.265625"/><stop stop-opacity="1" stop-color="rgb(61.87439%, 19.006348%, 87.882996%)" offset="0.28125"/><stop stop-opacity="1" stop-color="rgb(61.601257%, 19.088745%, 87.893677%)" offset="0.296875"/><stop stop-opacity="1" stop-color="rgb(61.328125%, 19.169617%, 87.905884%)" offset="0.3125"/><stop stop-opacity="1" stop-color="rgb(61.056519%, 19.252014%, 87.916565%)" offset="0.31548"/><stop stop-opacity="1" stop-color="rgb(60.920715%, 19.293213%, 87.922668%)" offset="0.328125"/><stop stop-opacity="1" stop-color="rgb(60.783386%, 19.332886%, 87.927246%)" offset="0.34375"/><stop stop-opacity="1" stop-color="rgb(60.510254%, 19.415283%, 87.939453%)" offset="0.359375"/><stop stop-opacity="1" stop-color="rgb(60.238647%, 19.497681%, 87.950134%)" offset="0.375"/><stop stop-opacity="1" stop-color="rgb(59.965515%, 19.578552%, 87.960815%)" offset="0.390625"/><stop stop-opacity="1" stop-color="rgb(59.692383%, 19.66095%, 87.973022%)" offset="0.40625"/><stop stop-opacity="1" stop-color="rgb(59.420776%, 19.741821%, 87.983704%)" offset="0.421875"/><stop stop-opacity="1" stop-color="rgb(59.147644%, 19.824219%, 87.995911%)" offset="0.4375"/><stop stop-opacity="1" stop-color="rgb(58.874512%, 19.906616%, 88.006592%)" offset="0.453125"/><stop stop-opacity="1" stop-color="rgb(58.602905%, 19.987488%, 88.017273%)" offset="0.46875"/><stop stop-opacity="1" stop-color="rgb(58.329773%, 20.069885%, 88.02948%)" offset="0.484375"/><stop stop-opacity="1" stop-color="rgb(58.056641%, 20.150757%, 88.040161%)" offset="0.5"/><stop stop-opacity="1" stop-color="rgb(57.785034%, 20.233154%, 88.052368%)" offset="0.515625"/><stop stop-opacity="1" stop-color="rgb(57.511902%, 20.315552%, 88.063049%)" offset="0.53125"/><stop stop-opacity="1" stop-color="rgb(57.23877%, 20.396423%, 88.07373%)" offset="0.546875"/><stop stop-opacity="1" stop-color="rgb(56.967163%, 20.478821%, 88.085938%)" offset="0.5625"/><stop stop-opacity="1" stop-color="rgb(56.694031%, 20.559692%, 88.096619%)" offset="0.578125"/><stop stop-opacity="1" stop-color="rgb(56.420898%, 20.64209%, 88.108826%)" offset="0.59375"/><stop stop-opacity="1" stop-color="rgb(56.149292%, 20.724487%, 88.119507%)" offset="0.609375"/><stop stop-opacity="1" stop-color="rgb(55.87616%, 20.805359%, 88.130188%)" offset="0.625"/><stop stop-opacity="1" stop-color="rgb(55.603027%, 20.887756%, 88.142395%)" offset="0.640625"/><stop stop-opacity="1" stop-color="rgb(55.331421%, 20.968628%, 88.153076%)" offset="0.65625"/><stop stop-opacity="1" stop-color="rgb(55.058289%, 21.051025%, 88.165283%)" offset="0.671875"/><stop stop-opacity="1" stop-color="rgb(54.785156%, 21.133423%, 88.175964%)" offset="0.68452"/><stop stop-opacity="1" stop-color="rgb(54.649353%, 21.174622%, 88.182068%)" offset="0.6875"/><stop stop-opacity="1" stop-color="rgb(54.51355%, 21.214294%, 88.186646%)" offset="0.703125"/><stop stop-opacity="1" stop-color="rgb(54.240417%, 21.296692%, 88.198853%)" offset="0.71875"/><stop stop-opacity="1" stop-color="rgb(53.967285%, 21.377563%, 88.209534%)" offset="0.734375"/><stop stop-opacity="1" stop-color="rgb(53.695679%, 21.459961%, 88.221741%)" offset="0.75"/><stop stop-opacity="1" stop-color="rgb(53.422546%, 21.542358%, 88.232422%)" offset="0.765625"/><stop stop-opacity="1" stop-color="rgb(53.149414%, 21.62323%, 88.243103%)" offset="0.78125"/><stop stop-opacity="1" stop-color="rgb(52.877808%, 21.705627%, 88.25531%)" offset="0.796875"/><stop stop-opacity="1" stop-color="rgb(52.604675%, 21.786499%, 88.265991%)" offset="0.8125"/><stop stop-opacity="1" stop-color="rgb(52.331543%, 21.868896%, 88.276672%)" offset="0.828125"/><stop stop-opacity="1" stop-color="rgb(52.059937%, 21.951294%, 88.288879%)" offset="0.84375"/><stop stop-opacity="1" stop-color="rgb(51.786804%, 22.032166%, 88.299561%)" offset="0.859375"/><stop stop-opacity="1" stop-color="rgb(51.513672%, 22.114563%, 88.311768%)" offset="0.875"/><stop stop-opacity="1" stop-color="rgb(51.242065%, 22.195435%, 88.322449%)" offset="0.890625"/><stop stop-opacity="1" stop-color="rgb(50.968933%, 22.277832%, 88.33313%)" offset="0.90625"/><stop stop-opacity="1" stop-color="rgb(50.695801%, 22.360229%, 88.345337%)" offset="0.921875"/><stop stop-opacity="1" stop-color="rgb(50.424194%, 22.441101%, 88.356018%)" offset="0.9375"/><stop stop-opacity="1" stop-color="rgb(50.151062%, 22.523499%, 88.368225%)" offset="0.953125"/><stop stop-opacity="1" stop-color="rgb(49.87793%, 22.60437%, 88.378906%)" offset="0.96875"/><stop stop-opacity="1" stop-color="rgb(49.606323%, 22.686768%, 88.389587%)" offset="0.984375"/><stop stop-opacity="1" stop-color="rgb(49.333191%, 22.769165%, 88.401794%)" offset="1"/></linearGradient><clipPath id="0bb450bbb1"><path d="M 12 36 L 36 36 L 36 55 L 12 55 Z M 12 36 " clip-rule="nonzero"/></clipPath><clipPath id="80002479b1"><path d="M 31.265625 42.71875 C 29.742188 42.875 28.335938 42.949219 27.03125 42.949219 C 17.820312 42.949219 13.746094 39.335938 12.015625 36.753906 L 12.015625 48.648438 C 12.015625 48.648438 12.757812 56.34375 35.109375 54.109375 L 31.277344 42.71875 Z M 31.265625 42.71875 " clip-rule="nonzero"/></clipPath><linearGradient x1="97.834183" gradientTransform="matrix(1.0503, 0, 0, 1.049975, -91.671787, -77.536609)" y1="109.966997" x2="120.418654" gradientUnits="userSpaceOnUse" y2="127.877389" id="726479ca50"><stop stop-opacity="1" stop-color="rgb(61.543274%, 19.10553%, 87.896729%)" offset="0"/><stop stop-opacity="1" stop-color="rgb(61.425781%, 19.140625%, 87.901306%)" offset="0.0078125"/><stop stop-opacity="1" stop-color="rgb(61.192322%, 19.210815%, 87.910461%)" offset="0.015625"/><stop stop-opacity="1" stop-color="rgb(60.957336%, 19.281006%, 87.921143%)" offset="0.0234375"/><stop stop-opacity="1" stop-color="rgb(60.722351%, 19.351196%, 87.930298%)" offset="0.03125"/><stop stop-opacity="1" stop-color="rgb(60.488892%, 19.422913%, 87.939453%)" offset="0.0390625"/><stop stop-opacity="1" stop-color="rgb(60.253906%, 19.493103%, 87.950134%)" offset="0.046875"/><stop stop-opacity="1" stop-color="rgb(60.020447%, 19.563293%, 87.95929%)" offset="0.0546875"/><stop stop-opacity="1" stop-color="rgb(59.785461%, 19.633484%, 87.968445%)" offset="0.0625"/><stop stop-opacity="1" stop-color="rgb(59.552002%, 19.703674%, 87.979126%)" offset="0.0703125"/><stop stop-opacity="1" stop-color="rgb(59.317017%, 19.773865%, 87.988281%)" offset="0.078125"/><stop stop-opacity="1" stop-color="rgb(59.083557%, 19.844055%, 87.998962%)" offset="0.0859375"/><stop stop-opacity="1" stop-color="rgb(58.848572%, 19.914246%, 88.008118%)" offset="0.09375"/><stop stop-opacity="1" stop-color="rgb(58.615112%, 19.984436%, 88.017273%)" offset="0.101562"/><stop stop-opacity="1" stop-color="rgb(58.380127%, 20.054626%, 88.027954%)" offset="0.109375"/><stop stop-opacity="1" stop-color="rgb(58.146667%, 20.124817%, 88.037109%)" offset="0.117187"/><stop stop-opacity="1" stop-color="rgb(57.911682%, 20.195007%, 88.046265%)" offset="0.125"/><stop stop-opacity="1" stop-color="rgb(57.676697%, 20.265198%, 88.056946%)" offset="0.132812"/><stop stop-opacity="1" stop-color="rgb(57.443237%, 20.335388%, 88.066101%)" offset="0.140625"/><stop stop-opacity="1" stop-color="rgb(57.208252%, 20.405579%, 88.075256%)" offset="0.148437"/><stop stop-opacity="1" stop-color="rgb(56.974792%, 20.475769%, 88.085938%)" offset="0.15625"/><stop stop-opacity="1" stop-color="rgb(56.739807%, 20.547485%, 88.095093%)" offset="0.164062"/><stop stop-opacity="1" stop-color="rgb(56.506348%, 20.617676%, 88.104248%)" offset="0.171875"/><stop stop-opacity="1" stop-color="rgb(56.271362%, 20.687866%, 88.114929%)" offset="0.179687"/><stop stop-opacity="1" stop-color="rgb(56.037903%, 20.758057%, 88.124084%)" offset="0.1875"/><stop stop-opacity="1" stop-color="rgb(55.802917%, 20.828247%, 88.13324%)" offset="0.195312"/><stop stop-opacity="1" stop-color="rgb(55.569458%, 20.898438%, 88.143921%)" offset="0.203125"/><stop stop-opacity="1" stop-color="rgb(55.334473%, 20.968628%, 88.153076%)" offset="0.210937"/><stop stop-opacity="1" stop-color="rgb(55.099487%, 21.038818%, 88.163757%)" offset="0.21875"/><stop stop-opacity="1" stop-color="rgb(54.866028%, 21.109009%, 88.172913%)" offset="0.226562"/><stop stop-opacity="1" stop-color="rgb(54.631042%, 21.179199%, 88.182068%)" offset="0.234375"/><stop stop-opacity="1" stop-color="rgb(54.397583%, 21.24939%, 88.192749%)" offset="0.242188"/><stop stop-opacity="1" stop-color="rgb(54.162598%, 21.31958%, 88.201904%)" offset="0.25"/><stop stop-opacity="1" stop-color="rgb(53.929138%, 21.389771%, 88.21106%)" offset="0.257812"/><stop stop-opacity="1" stop-color="rgb(53.694153%, 21.459961%, 88.221741%)" offset="0.265625"/><stop stop-opacity="1" stop-color="rgb(53.460693%, 21.530151%, 88.230896%)" offset="0.273438"/><stop stop-opacity="1" stop-color="rgb(53.225708%, 21.600342%, 88.240051%)" offset="0.28125"/><stop stop-opacity="1" stop-color="rgb(52.992249%, 21.672058%, 88.250732%)" offset="0.289062"/><stop stop-opacity="1" stop-color="rgb(52.757263%, 21.742249%, 88.259888%)" offset="0.296875"/><stop stop-opacity="1" stop-color="rgb(52.523804%, 21.812439%, 88.269043%)" offset="0.304688"/><stop stop-opacity="1" stop-color="rgb(52.288818%, 21.882629%, 88.279724%)" offset="0.3125"/><stop stop-opacity="1" stop-color="rgb(52.053833%, 21.95282%, 88.288879%)" offset="0.320312"/><stop stop-opacity="1" stop-color="rgb(51.820374%, 22.02301%, 88.298035%)" offset="0.328125"/><stop stop-opacity="1" stop-color="rgb(51.585388%, 22.093201%, 88.308716%)" offset="0.335938"/><stop stop-opacity="1" stop-color="rgb(51.351929%, 22.163391%, 88.317871%)" offset="0.34375"/><stop stop-opacity="1" stop-color="rgb(51.116943%, 22.233582%, 88.328552%)" offset="0.351562"/><stop stop-opacity="1" stop-color="rgb(50.883484%, 22.303772%, 88.337708%)" offset="0.359375"/><stop stop-opacity="1" stop-color="rgb(50.648499%, 22.373962%, 88.346863%)" offset="0.367188"/><stop stop-opacity="1" stop-color="rgb(50.415039%, 22.444153%, 88.357544%)" offset="0.375"/><stop stop-opacity="1" stop-color="rgb(50.180054%, 22.514343%, 88.366699%)" offset="0.382812"/><stop stop-opacity="1" stop-color="rgb(49.946594%, 22.584534%, 88.375854%)" offset="0.390625"/><stop stop-opacity="1" stop-color="rgb(49.711609%, 22.654724%, 88.386536%)" offset="0.398438"/><stop stop-opacity="1" stop-color="rgb(49.476624%, 22.724915%, 88.395691%)" offset="0.402253"/><stop stop-opacity="1" stop-color="rgb(49.360657%, 22.761536%, 88.400269%)" offset="0.40625"/><stop stop-opacity="1" stop-color="rgb(49.243164%, 22.796631%, 88.404846%)" offset="0.414062"/><stop stop-opacity="1" stop-color="rgb(49.008179%, 22.866821%, 88.415527%)" offset="0.421875"/><stop stop-opacity="1" stop-color="rgb(48.774719%, 22.937012%, 88.424683%)" offset="0.429688"/><stop stop-opacity="1" stop-color="rgb(48.539734%, 23.007202%, 88.433838%)" offset="0.4375"/><stop stop-opacity="1" stop-color="rgb(48.306274%, 23.077393%, 88.444519%)" offset="0.445312"/><stop stop-opacity="1" stop-color="rgb(48.071289%, 23.147583%, 88.453674%)" offset="0.453125"/><stop stop-opacity="1" stop-color="rgb(47.83783%, 23.217773%, 88.46283%)" offset="0.460938"/><stop stop-opacity="1" stop-color="rgb(47.602844%, 23.287964%, 88.473511%)" offset="0.46875"/><stop stop-opacity="1" stop-color="rgb(47.369385%, 23.358154%, 88.482666%)" offset="0.476562"/><stop stop-opacity="1" stop-color="rgb(47.134399%, 23.428345%, 88.493347%)" offset="0.484375"/><stop stop-opacity="1" stop-color="rgb(46.90094%, 23.498535%, 88.502502%)" offset="0.492188"/><stop stop-opacity="1" stop-color="rgb(46.665955%, 23.568726%, 88.511658%)" offset="0.5"/><stop stop-opacity="1" stop-color="rgb(46.430969%, 23.638916%, 88.522339%)" offset="0.507812"/><stop stop-opacity="1" stop-color="rgb(46.19751%, 23.709106%, 88.531494%)" offset="0.515625"/><stop stop-opacity="1" stop-color="rgb(45.962524%, 23.779297%, 88.540649%)" offset="0.523438"/><stop stop-opacity="1" stop-color="rgb(45.729065%, 23.849487%, 88.551331%)" offset="0.53125"/><stop stop-opacity="1" stop-color="rgb(45.49408%, 23.921204%, 88.560486%)" offset="0.539062"/><stop stop-opacity="1" stop-color="rgb(45.26062%, 23.991394%, 88.569641%)" offset="0.546875"/><stop stop-opacity="1" stop-color="rgb(45.025635%, 24.061584%, 88.580322%)" offset="0.554688"/><stop stop-opacity="1" stop-color="rgb(44.792175%, 24.131775%, 88.589478%)" offset="0.5625"/><stop stop-opacity="1" stop-color="rgb(44.55719%, 24.201965%, 88.598633%)" offset="0.570312"/><stop stop-opacity="1" stop-color="rgb(44.32373%, 24.272156%, 88.609314%)" offset="0.578125"/><stop stop-opacity="1" stop-color="rgb(44.088745%, 24.342346%, 88.618469%)" offset="0.585938"/><stop stop-opacity="1" stop-color="rgb(43.85376%, 24.412537%, 88.62915%)" offset="0.59375"/><stop stop-opacity="1" stop-color="rgb(43.6203%, 24.482727%, 88.638306%)" offset="0.597747"/><stop stop-opacity="1" stop-color="rgb(43.502808%, 24.517822%, 88.642883%)" offset="0.601562"/><stop stop-opacity="1" stop-color="rgb(43.385315%, 24.552917%, 88.647461%)" offset="0.609375"/><stop stop-opacity="1" stop-color="rgb(43.151855%, 24.623108%, 88.658142%)" offset="0.617188"/><stop stop-opacity="1" stop-color="rgb(42.91687%, 24.693298%, 88.667297%)" offset="0.625"/><stop stop-opacity="1" stop-color="rgb(42.683411%, 24.763489%, 88.676453%)" offset="0.632812"/><stop stop-opacity="1" stop-color="rgb(42.448425%, 24.833679%, 88.687134%)" offset="0.640625"/><stop stop-opacity="1" stop-color="rgb(42.214966%, 24.90387%, 88.696289%)" offset="0.648438"/><stop stop-opacity="1" stop-color="rgb(41.97998%, 24.97406%, 88.705444%)" offset="0.65625"/><stop stop-opacity="1" stop-color="rgb(41.746521%, 25.045776%, 88.716125%)" offset="0.664062"/><stop stop-opacity="1" stop-color="rgb(41.511536%, 25.115967%, 88.725281%)" offset="0.671875"/><stop stop-opacity="1" stop-color="rgb(41.278076%, 25.186157%, 88.734436%)" offset="0.679688"/><stop stop-opacity="1" stop-color="rgb(41.043091%, 25.256348%, 88.745117%)" offset="0.6875"/><stop stop-opacity="1" stop-color="rgb(40.808105%, 25.326538%, 88.754272%)" offset="0.695312"/><stop stop-opacity="1" stop-color="rgb(40.574646%, 25.396729%, 88.763428%)" offset="0.703125"/><stop stop-opacity="1" stop-color="rgb(40.339661%, 25.466919%, 88.774109%)" offset="0.710938"/><stop stop-opacity="1" stop-color="rgb(40.106201%, 25.537109%, 88.783264%)" offset="0.71875"/><stop stop-opacity="1" stop-color="rgb(39.871216%, 25.6073%, 88.793945%)" offset="0.726562"/><stop stop-opacity="1" stop-color="rgb(39.637756%, 25.67749%, 88.803101%)" offset="0.734375"/><stop stop-opacity="1" stop-color="rgb(39.402771%, 25.747681%, 88.812256%)" offset="0.742188"/><stop stop-opacity="1" stop-color="rgb(39.169312%, 25.817871%, 88.822937%)" offset="0.75"/><stop stop-opacity="1" stop-color="rgb(38.934326%, 25.888062%, 88.832092%)" offset="0.757812"/><stop stop-opacity="1" stop-color="rgb(38.700867%, 25.958252%, 88.841248%)" offset="0.765625"/><stop stop-opacity="1" stop-color="rgb(38.465881%, 26.028442%, 88.851929%)" offset="0.773438"/><stop stop-opacity="1" stop-color="rgb(38.230896%, 26.098633%, 88.861084%)" offset="0.78125"/><stop stop-opacity="1" stop-color="rgb(37.997437%, 26.170349%, 88.870239%)" offset="0.789062"/><stop stop-opacity="1" stop-color="rgb(37.762451%, 26.24054%, 88.88092%)" offset="0.796875"/><stop stop-opacity="1" stop-color="rgb(37.528992%, 26.31073%, 88.890076%)" offset="0.804688"/><stop stop-opacity="1" stop-color="rgb(37.294006%, 26.38092%, 88.899231%)" offset="0.8125"/><stop stop-opacity="1" stop-color="rgb(37.060547%, 26.451111%, 88.909912%)" offset="0.820312"/><stop stop-opacity="1" stop-color="rgb(36.825562%, 26.521301%, 88.919067%)" offset="0.828125"/><stop stop-opacity="1" stop-color="rgb(36.592102%, 26.591492%, 88.928223%)" offset="0.835938"/><stop stop-opacity="1" stop-color="rgb(36.357117%, 26.661682%, 88.938904%)" offset="0.84375"/><stop stop-opacity="1" stop-color="rgb(36.123657%, 26.731873%, 88.948059%)" offset="0.851562"/><stop stop-opacity="1" stop-color="rgb(35.888672%, 26.802063%, 88.95874%)" offset="0.859375"/><stop stop-opacity="1" stop-color="rgb(35.655212%, 26.872253%, 88.967896%)" offset="0.867188"/><stop stop-opacity="1" stop-color="rgb(35.420227%, 26.942444%, 88.977051%)" offset="0.875"/><stop stop-opacity="1" stop-color="rgb(35.185242%, 27.012634%, 88.987732%)" offset="0.882812"/><stop stop-opacity="1" stop-color="rgb(34.983826%, 27.073669%, 88.995361%)" offset="0.890625"/><stop stop-opacity="1" stop-color="rgb(34.899902%, 27.099609%, 88.999939%)" offset="0.90625"/><stop stop-opacity="1" stop-color="rgb(34.899902%, 27.099609%, 88.999939%)" offset="0.9375"/><stop stop-opacity="1" stop-color="rgb(34.899902%, 27.099609%, 88.999939%)" offset="1"/></linearGradient></defs><g clip-path="url(#b70f79481b)"><path fill="#ffffff" d="M 0.496094 0 L 164.503906 0 L 164.503906 82.003906 L 0.496094 82.003906 Z M 0.496094 0 " fill-opacity="1" fill-rule="nonzero"/></g><path fill="#000000" d="M 41.378906 48.3125 C 39.113281 46.328125 38.511719 43.734375 38.511719 41.488281 C 38.511719 39.914062 38.996094 37.183594 41.222656 35.15625 C 42.882812 33.632812 45.085938 32.710938 48.53125 32.710938 C 49.972656 32.710938 50.824219 32.804688 51.882812 32.941406 C 52.765625 33.058594 53.5 33.265625 54.195312 33.332031 C 54.445312 33.351562 54.539062 33.464844 54.539062 33.601562 C 54.539062 33.792969 54.46875 34.066406 54.425781 34.875 C 54.382812 35.640625 54.402344 36.910156 54.351562 37.371094 C 54.332031 37.71875 54.277344 37.90625 54.078125 37.90625 C 53.890625 37.90625 53.847656 37.71875 53.847656 37.402344 C 53.828125 36.691406 53.523438 35.882812 52.945312 35.273438 C 52.175781 34.464844 50.382812 33.835938 48.25 33.835938 C 46.234375 33.835938 44.917969 34.339844 43.902344 35.273438 C 42.210938 36.816406 41.769531 39.019531 41.769531 41.257812 C 41.769531 46.757812 45.960938 49.488281 49.058594 49.488281 C 51.117188 49.488281 52.367188 49.257812 53.289062 48.199219 C 53.679688 47.757812 53.984375 47.085938 54.078125 46.675781 C 54.152344 46.308594 54.195312 46.214844 54.382812 46.214844 C 54.539062 46.214844 54.59375 46.371094 54.59375 46.558594 C 54.59375 46.832031 54.320312 48.847656 54.089844 49.636719 C 53.972656 50.023438 53.878906 50.140625 53.488281 50.308594 C 52.566406 50.675781 50.8125 50.84375 49.332031 50.84375 C 46.160156 50.84375 43.5 50.152344 41.402344 48.324219 Z M 41.378906 48.3125 " fill-opacity="1" fill-rule="nonzero"/><path fill="#000000" d="M 56.621094 43.074219 C 56.621094 39.722656 58.984375 35.378906 65.148438 35.378906 C 70.285156 35.378906 73.476562 38.222656 73.476562 42.726562 C 73.476562 47.230469 70.191406 50.769531 64.949219 50.769531 C 59.023438 50.769531 56.621094 46.558594 56.621094 43.074219 Z M 70.453125 43.441406 C 70.453125 39.09375 67.835938 36.417969 64.550781 36.417969 C 62.28125 36.417969 59.625 37.613281 59.625 42.476562 C 59.625 46.519531 61.933594 49.710938 65.777344 49.710938 C 67.207031 49.710938 70.453125 49.039062 70.453125 43.441406 Z M 70.453125 43.441406 " fill-opacity="1" fill-rule="nonzero"/><path fill="#000000" d="M 79.777344 44.804688 C 79.777344 47.328125 79.777344 48.574219 80.21875 48.941406 C 80.566406 49.246094 81.355469 49.363281 82.929688 49.363281 C 84.011719 49.363281 84.800781 49.34375 85.3125 48.808594 C 85.566406 48.554688 85.777344 48 85.820312 47.628906 C 85.839844 47.441406 85.890625 47.328125 86.050781 47.328125 C 86.1875 47.328125 86.238281 47.535156 86.238281 47.765625 C 86.238281 48 86.101562 49.457031 85.933594 50.035156 C 85.796875 50.476562 85.703125 50.570312 84.640625 50.570312 C 83.183594 50.570312 82.003906 50.550781 80.988281 50.496094 C 79.96875 50.476562 79.117188 50.457031 78.277344 50.457031 C 78.046875 50.457031 77.605469 50.476562 77.121094 50.476562 C 76.640625 50.496094 76.125 50.519531 75.714844 50.519531 C 75.460938 50.519531 75.324219 50.445312 75.324219 50.308594 C 75.324219 50.214844 75.398438 50.097656 75.652344 50.097656 C 75.957031 50.097656 76.1875 50.078125 76.367188 50.023438 C 76.785156 49.929688 76.902344 49.5625 76.964844 48.984375 C 77.058594 48.15625 77.058594 46.601562 77.058594 44.796875 L 77.058594 41.332031 C 77.058594 38.347656 77.058594 37.792969 77.039062 37.171875 C 76.996094 36.5 76.808594 36.292969 76.15625 36.113281 C 76 36.070312 75.734375 36.039062 75.484375 36.039062 C 75.253906 36.039062 75.136719 35.964844 75.136719 35.828125 C 75.136719 35.691406 75.273438 35.640625 75.578125 35.640625 C 76.523438 35.640625 77.824219 35.683594 78.371094 35.683594 C 78.855469 35.683594 80.523438 35.640625 81.3125 35.640625 C 81.617188 35.640625 81.753906 35.683594 81.753906 35.828125 C 81.753906 35.976562 81.636719 36.039062 81.386719 36.039062 C 81.15625 36.039062 80.828125 36.058594 80.597656 36.113281 C 80.042969 36.207031 79.882812 36.480469 79.832031 37.171875 C 79.789062 37.792969 79.789062 38.347656 79.789062 41.332031 L 79.789062 44.796875 Z M 79.777344 44.804688 " fill-opacity="1" fill-rule="nonzero"/><path fill="#000000" d="M 90.847656 45.40625 C 90.847656 44.34375 90.660156 43.925781 90.386719 43.347656 C 90.25 43.042969 87.476562 38.726562 86.753906 37.6875 C 86.25 36.972656 85.828125 36.511719 85.441406 36.300781 C 85.1875 36.164062 84.839844 36.050781 84.578125 36.050781 C 84.421875 36.050781 84.273438 35.976562 84.273438 35.839844 C 84.273438 35.703125 84.410156 35.652344 84.664062 35.652344 C 85.007812 35.652344 86.53125 35.691406 87.203125 35.691406 C 87.644531 35.691406 88.589844 35.652344 89.515625 35.652344 C 89.703125 35.652344 89.820312 35.691406 89.820312 35.839844 C 89.820312 35.996094 89.683594 35.996094 89.359375 36.089844 C 89.199219 36.132812 89.085938 36.226562 89.085938 36.394531 C 89.085938 36.5625 89.179688 36.785156 89.335938 37.066406 C 89.703125 37.667969 92.363281 42.265625 92.707031 42.820312 C 92.960938 42.359375 95.4375 38.148438 95.734375 37.550781 C 95.941406 37.109375 96.039062 36.761719 96.039062 36.511719 C 96.039062 36.324219 95.941406 36.144531 95.597656 36.070312 C 95.40625 36.027344 95.230469 35.996094 95.230469 35.839844 C 95.230469 35.703125 95.34375 35.652344 95.574219 35.652344 C 96.246094 35.652344 96.960938 35.691406 97.5625 35.691406 C 98 35.691406 99.347656 35.652344 99.734375 35.652344 C 99.964844 35.652344 100.101562 35.691406 100.101562 35.808594 C 100.101562 35.945312 99.945312 36.039062 99.714844 36.039062 C 99.503906 36.039062 99.136719 36.132812 98.832031 36.269531 C 98.390625 36.480469 98.210938 36.660156 97.769531 37.195312 C 97.097656 37.980469 94.1875 42.652344 93.8125 43.484375 C 93.507812 44.199219 93.558594 44.804688 93.558594 45.445312 L 93.558594 47.023438 C 93.558594 47.347656 93.558594 48.15625 93.601562 48.984375 C 93.644531 49.5625 93.832031 49.929688 94.429688 50.023438 C 94.734375 50.066406 95.167969 50.097656 95.449219 50.097656 C 95.679688 50.097656 95.796875 50.214844 95.796875 50.308594 C 95.796875 50.445312 95.640625 50.519531 95.355469 50.519531 C 94.085938 50.519531 92.71875 50.445312 92.164062 50.445312 C 91.65625 50.445312 90.292969 50.519531 89.527344 50.519531 C 89.253906 50.519531 89.085938 50.476562 89.085938 50.308594 C 89.085938 50.214844 89.179688 50.097656 89.410156 50.097656 C 89.683594 50.097656 89.945312 50.078125 90.125 50.023438 C 90.542969 49.929688 90.703125 49.5625 90.746094 48.984375 C 90.816406 48.15625 90.816406 47.347656 90.816406 47.023438 L 90.816406 45.40625 Z M 90.847656 45.40625 " fill-opacity="1" fill-rule="nonzero"/><path fill="#000000" d="M 100.964844 50.253906 C 100.636719 50.121094 100.574219 50.023438 100.574219 49.582031 C 100.574219 48.523438 100.667969 47.292969 100.691406 46.96875 C 100.691406 46.664062 100.785156 46.464844 100.941406 46.464844 C 101.132812 46.464844 101.152344 46.65625 101.152344 46.789062 C 101.152344 47.042969 101.226562 47.460938 101.34375 47.808594 C 101.78125 49.269531 103.304688 49.75 104.578125 49.75 C 106.332031 49.75 107.402344 48.640625 107.402344 47.253906 C 107.402344 46.402344 107.191406 45.542969 105.386719 44.480469 L 104.210938 43.789062 C 101.804688 42.382812 101.015625 41.058594 101.015625 39.324219 C 101.015625 36.921875 103.328125 35.367188 106.152344 35.367188 C 107.476562 35.367188 108.515625 35.554688 109.039062 35.691406 C 109.230469 35.734375 109.3125 35.808594 109.3125 35.945312 C 109.3125 36.195312 109.238281 36.753906 109.238281 38.308594 C 109.238281 38.726562 109.144531 38.925781 108.988281 38.925781 C 108.851562 38.925781 108.777344 38.8125 108.777344 38.578125 C 108.777344 38.390625 108.683594 37.792969 108.242188 37.289062 C 107.9375 36.921875 107.296875 36.363281 105.972656 36.363281 C 104.515625 36.363281 103.199219 37.132812 103.199219 38.464844 C 103.199219 39.347656 103.527344 40.039062 105.355469 41.058594 L 106.183594 41.519531 C 108.863281 43 109.703125 44.5 109.703125 46.285156 C 109.703125 47.746094 109.144531 48.921875 107.664062 49.960938 C 106.699219 50.65625 105.355469 50.769531 104.261719 50.769531 C 103.085938 50.769531 101.835938 50.65625 100.953125 50.265625 Z M 100.964844 50.253906 " fill-opacity="1" fill-rule="nonzero"/><path fill="#000000" d="M 113.863281 41.332031 C 113.863281 38.347656 113.863281 37.792969 113.839844 37.171875 C 113.796875 36.5 113.609375 36.292969 112.957031 36.113281 C 112.800781 36.070312 112.453125 36.039062 112.148438 36.039062 C 111.9375 36.039062 111.804688 35.964844 111.804688 35.828125 C 111.804688 35.691406 111.960938 35.640625 112.265625 35.640625 C 113.324219 35.640625 114.628906 35.683594 115.207031 35.683594 C 115.855469 35.683594 120.363281 35.703125 120.75 35.683594 C 121.117188 35.660156 121.445312 35.585938 121.601562 35.566406 C 121.71875 35.546875 121.832031 35.472656 121.925781 35.472656 C 122.042969 35.472656 122.0625 35.566406 122.0625 35.660156 C 122.0625 35.796875 121.949219 36.027344 121.90625 36.929688 C 121.886719 37.140625 121.832031 37.992188 121.792969 38.222656 C 121.769531 38.316406 121.71875 38.546875 121.558594 38.546875 C 121.421875 38.546875 121.402344 38.453125 121.402344 38.296875 C 121.402344 38.160156 121.382812 37.8125 121.265625 37.582031 C 121.109375 37.234375 120.941406 36.964844 119.921875 36.867188 C 119.574219 36.828125 117.148438 36.773438 116.730469 36.773438 C 116.632812 36.773438 116.59375 36.847656 116.59375 36.964844 L 116.59375 41.8125 C 116.59375 41.929688 116.613281 42.023438 116.730469 42.023438 C 117.191406 42.023438 119.828125 42.023438 120.289062 41.980469 C 120.773438 41.941406 121.078125 41.886719 121.253906 41.675781 C 121.414062 41.539062 121.488281 41.425781 121.582031 41.425781 C 121.675781 41.425781 121.738281 41.519531 121.738281 41.636719 C 121.738281 41.75 121.695312 42.078125 121.582031 43.074219 C 121.539062 43.460938 121.488281 44.25 121.488281 44.386719 C 121.488281 44.542969 121.464844 44.828125 121.277344 44.828125 C 121.140625 44.828125 121.085938 44.753906 121.085938 44.671875 C 121.066406 44.460938 121.066406 44.207031 121.015625 43.957031 C 120.898438 43.566406 120.644531 43.261719 119.878906 43.191406 C 119.511719 43.148438 117.203125 43.09375 116.6875 43.09375 C 116.59375 43.09375 116.570312 43.191406 116.570312 43.304688 L 116.570312 44.878906 C 116.570312 45.550781 116.550781 47.210938 116.570312 47.789062 C 116.613281 49.132812 117.242188 49.425781 119.324219 49.425781 C 119.859375 49.425781 120.710938 49.40625 121.246094 49.175781 C 121.75 48.941406 121.980469 48.523438 122.128906 47.714844 C 122.167969 47.503906 122.222656 47.410156 122.359375 47.410156 C 122.515625 47.410156 122.546875 47.664062 122.546875 47.871094 C 122.546875 48.3125 122.390625 49.65625 122.273438 50.046875 C 122.136719 50.550781 121.949219 50.550781 121.183594 50.550781 C 119.660156 50.550781 118.429688 50.527344 117.433594 50.476562 C 116.433594 50.457031 115.679688 50.433594 115.070312 50.433594 C 114.839844 50.433594 114.398438 50.457031 113.914062 50.457031 C 113.429688 50.476562 112.917969 50.496094 112.507812 50.496094 C 112.253906 50.496094 112.117188 50.421875 112.117188 50.289062 C 112.117188 50.191406 112.191406 50.078125 112.445312 50.078125 C 112.75 50.078125 112.980469 50.054688 113.15625 50.003906 C 113.578125 49.910156 113.695312 49.542969 113.757812 48.964844 C 113.851562 48.136719 113.851562 46.582031 113.851562 44.773438 L 113.851562 41.308594 Z M 113.863281 41.332031 " fill-opacity="1" fill-rule="nonzero"/><path fill="#000000" d="M 126.078125 41.332031 C 126.078125 38.347656 126.097656 37.792969 126.054688 37.171875 C 126.011719 36.480469 125.824219 36.292969 125.171875 36.113281 C 125.015625 36.070312 124.667969 36.039062 124.386719 36.039062 C 124.15625 36.039062 124.039062 35.964844 124.039062 35.828125 C 124.039062 35.691406 124.175781 35.640625 124.480469 35.640625 C 125.570312 35.640625 126.925781 35.683594 127.535156 35.683594 C 128.039062 35.683594 129.40625 35.640625 130.152344 35.640625 C 130.457031 35.640625 130.59375 35.683594 130.59375 35.828125 C 130.59375 35.976562 130.476562 36.039062 130.265625 36.039062 C 130.035156 36.039062 129.921875 36.058594 129.667969 36.113281 C 129.132812 36.207031 128.976562 36.480469 128.933594 37.171875 C 128.890625 37.792969 128.890625 38.347656 128.890625 41.332031 L 128.890625 44.082031 C 128.890625 46.949219 129.449219 48.0625 130.445312 48.847656 C 131.347656 49.5625 132.316406 49.636719 133.007812 49.636719 C 133.890625 49.636719 134.929688 49.382812 135.738281 48.597656 C 136.875 47.535156 136.914062 45.824219 136.914062 43.808594 L 136.914062 41.332031 C 136.914062 38.347656 136.894531 37.792969 136.875 37.171875 C 136.832031 36.5 136.664062 36.292969 136.023438 36.113281 C 135.867188 36.070312 135.519531 36.039062 135.289062 36.039062 C 135.054688 36.039062 134.941406 35.964844 134.941406 35.828125 C 134.941406 35.691406 135.078125 35.640625 135.359375 35.640625 C 136.402344 35.640625 137.765625 35.683594 137.789062 35.683594 C 138.019531 35.683594 139.382812 35.640625 140.171875 35.640625 C 140.445312 35.640625 140.589844 35.683594 140.589844 35.828125 C 140.589844 35.976562 140.476562 36.039062 140.246094 36.039062 C 140.015625 36.039062 139.898438 36.058594 139.644531 36.113281 C 139.089844 36.207031 138.953125 36.480469 138.910156 37.171875 C 138.890625 37.792969 138.867188 38.347656 138.867188 41.332031 L 138.867188 43.429688 C 138.867188 45.625 138.636719 47.933594 136.925781 49.351562 C 135.496094 50.550781 133.941406 50.761719 132.621094 50.761719 C 131.558594 50.761719 129.449219 50.71875 127.96875 49.414062 C 126.925781 48.511719 126.117188 47.054688 126.117188 44.21875 L 126.117188 41.332031 Z M 126.078125 41.332031 " fill-opacity="1" fill-rule="nonzero"/><path fill="#000000" d="M 143.195312 50.253906 C 142.871094 50.121094 142.808594 50.023438 142.808594 49.582031 C 142.808594 48.523438 142.902344 47.292969 142.921875 46.96875 C 142.921875 46.664062 143.019531 46.464844 143.175781 46.464844 C 143.363281 46.464844 143.386719 46.65625 143.386719 46.789062 C 143.386719 47.042969 143.457031 47.460938 143.574219 47.808594 C 144.015625 49.269531 145.539062 49.75 146.808594 49.75 C 148.5625 49.75 149.632812 48.640625 149.632812 47.253906 C 149.632812 46.402344 149.425781 45.542969 147.617188 44.480469 L 146.441406 43.789062 C 144.035156 42.382812 143.25 41.058594 143.25 39.324219 C 143.25 36.921875 145.558594 35.367188 148.386719 35.367188 C 149.707031 35.367188 150.746094 35.554688 151.273438 35.691406 C 151.460938 35.734375 151.546875 35.808594 151.546875 35.945312 C 151.546875 36.195312 151.472656 36.753906 151.472656 38.308594 C 151.472656 38.726562 151.378906 38.925781 151.21875 38.925781 C 151.085938 38.925781 151.011719 38.8125 151.011719 38.578125 C 151.011719 38.390625 150.914062 37.792969 150.476562 37.289062 C 150.171875 36.921875 149.53125 36.363281 148.207031 36.363281 C 146.746094 36.363281 145.433594 37.132812 145.433594 38.464844 C 145.433594 39.347656 145.757812 40.039062 147.585938 41.058594 L 148.417969 41.519531 C 151.09375 43 151.933594 44.5 151.933594 46.285156 C 151.933594 47.746094 151.378906 48.921875 149.898438 49.960938 C 148.929688 50.65625 147.585938 50.769531 146.496094 50.769531 C 145.316406 50.769531 144.066406 50.65625 143.1875 50.265625 Z M 143.195312 50.253906 " fill-opacity="1" fill-rule="nonzero"/><g clip-path="url(#91490acb54)"><g clip-path="url(#2efbed188a)"><path fill="url(#4b714fc7de)" d="M 15.804688 32.59375 L 15.804688 39.777344 L 29.226562 39.777344 L 29.226562 32.59375 Z M 15.804688 32.59375 " fill-rule="nonzero"/></g></g><g clip-path="url(#d1c6c1fd57)"><g clip-path="url(#8b7a654543)"><path fill="url(#bedf11d8cd)" d="M 12.433594 27.945312 L 12.433594 36.878906 L 27.820312 36.878906 L 27.820312 27.945312 Z M 12.433594 27.945312 " fill-rule="nonzero"/></g></g><g clip-path="url(#0bb450bbb1)"><g clip-path="url(#80002479b1)"><path fill="url(#726479ca50)" d="M 12.015625 36.753906 L 12.015625 56.34375 L 35.109375 56.34375 L 35.109375 36.753906 Z M 12.015625 36.753906 " fill-rule="nonzero"/></g></g></svg>