<svg xmlns="http://www.w3.org/2000/svg" xmlns:xlink="http://www.w3.org/1999/xlink" width="220" zoomAndPan="magnify" viewBox="0 0 165 82.499998" height="110" preserveAspectRatio="xMidYMid meet" version="1.0"><defs><clipPath id="8066530410"><path d="M 0.496094 0 L 164.503906 0 L 164.503906 82.003906 L 0.496094 82.003906 Z M 0.496094 0 " clip-rule="nonzero"/></clipPath><clipPath id="b706dc3c05"><path d="M 9.253906 15.804688 L 60 15.804688 L 60 66.3125 L 9.253906 66.3125 Z M 9.253906 15.804688 " clip-rule="nonzero"/></clipPath><clipPath id="9a8c20bd96"><path d="M 144 35 L 156.109375 35 L 156.109375 54 L 144 54 Z M 144 35 " clip-rule="nonzero"/></clipPath></defs><g clip-path="url(#8066530410)"><path fill="#ffffff" d="M 0.496094 0 L 164.503906 0 L 164.503906 82.003906 L 0.496094 82.003906 Z M 0.496094 0 " fill-opacity="1" fill-rule="nonzero"/></g><g clip-path="url(#b706dc3c05)"><path fill="#ffffff" d="M 59.785156 42.265625 C 59.789062 40.210938 59.160156 38.199219 57.984375 36.515625 C 56.808594 34.832031 55.140625 33.554688 53.210938 32.855469 C 53.386719 31.957031 53.472656 31.046875 53.472656 30.128906 C 53.476562 27.101562 52.519531 24.148438 50.746094 21.699219 C 48.96875 19.25 46.464844 17.429688 43.59375 16.496094 C 40.71875 15.5625 37.628906 15.570312 34.757812 16.511719 C 31.890625 17.457031 29.394531 19.289062 27.628906 21.746094 C 26.324219 20.730469 24.730469 20.171875 23.082031 20.152344 C 21.433594 20.132812 19.824219 20.648438 18.496094 21.628906 C 17.167969 22.609375 16.191406 23.996094 15.722656 25.578125 C 15.25 27.164062 15.304688 28.859375 15.878906 30.410156 C 13.945312 31.117188 12.273438 32.402344 11.089844 34.089844 C 9.902344 35.78125 9.261719 37.792969 9.253906 39.859375 C 9.246094 41.925781 9.878906 43.941406 11.0625 45.628906 C 12.246094 47.316406 13.921875 48.597656 15.863281 49.289062 C 15.691406 50.1875 15.601562 51.101562 15.601562 52.011719 C 15.597656 55.039062 16.550781 57.988281 18.328125 60.433594 C 20.101562 62.878906 22.605469 64.695312 25.476562 65.625 C 28.34375 66.550781 31.433594 66.539062 34.296875 65.589844 C 37.160156 64.640625 39.648438 62.800781 41.40625 60.34375 C 42.703125 61.359375 44.296875 61.921875 45.945312 61.945312 C 47.589844 61.96875 49.199219 61.457031 50.527344 60.480469 C 51.859375 59.503906 52.832031 58.117188 53.304688 56.535156 C 53.78125 54.953125 53.726562 53.257812 53.152344 51.710938 C 55.089844 51.003906 56.761719 49.71875 57.945312 48.03125 C 59.132812 46.339844 59.773438 44.328125 59.78125 42.261719 " fill-opacity="1" fill-rule="nonzero"/></g><path fill="#fec514" d="M 29.121094 37.558594 L 40.179688 42.625 L 51.339844 32.816406 C 51.5 32.007812 51.578125 31.183594 51.578125 30.355469 C 51.574219 27.6875 50.722656 25.085938 49.144531 22.933594 C 47.5625 20.785156 45.339844 19.195312 42.796875 18.40625 C 40.253906 17.617188 37.523438 17.664062 35.007812 18.539062 C 32.496094 19.417969 30.324219 21.082031 28.820312 23.285156 L 26.960938 32.933594 Z M 29.121094 37.558594 " fill-opacity="1" fill-rule="nonzero"/><path fill="#00bfb3" d="M 17.671875 49.308594 C 17.511719 50.128906 17.429688 50.964844 17.429688 51.804688 C 17.429688 54.488281 18.285156 57.097656 19.875 59.257812 C 21.464844 61.414062 23.699219 63.007812 26.253906 63.796875 C 28.808594 64.585938 31.550781 64.53125 34.074219 63.644531 C 36.59375 62.753906 38.769531 61.078125 40.273438 58.859375 L 42.113281 49.230469 L 39.65625 44.515625 L 28.554688 39.441406 Z M 17.671875 49.308594 " fill-opacity="1" fill-rule="nonzero"/><path fill="#f04e98" d="M 17.605469 30.105469 L 25.183594 31.902344 L 26.84375 23.253906 C 25.8125 22.46875 24.554688 22.042969 23.261719 22.035156 C 21.96875 22.027344 20.707031 22.4375 19.667969 23.210938 C 18.628906 23.980469 17.863281 25.070312 17.492188 26.3125 C 17.121094 27.558594 17.160156 28.886719 17.605469 30.105469 Z M 17.605469 30.105469 " fill-opacity="1" fill-rule="nonzero"/><path fill="#1ba9f5" d="M 16.949219 31.917969 C 15.285156 32.480469 13.839844 33.546875 12.808594 34.972656 C 11.78125 36.402344 11.21875 38.113281 11.207031 39.875 C 11.203125 41.574219 11.71875 43.238281 12.683594 44.636719 C 13.644531 46.039062 15.011719 47.113281 16.597656 47.714844 L 27.226562 38.074219 L 25.273438 33.886719 Z M 16.949219 31.917969 " fill-opacity="1" fill-rule="nonzero"/><path fill="#93c90e" d="M 42.214844 58.859375 C 43.246094 59.640625 44.5 60.066406 45.789062 60.074219 C 47.078125 60.078125 48.335938 59.667969 49.371094 58.898438 C 50.410156 58.128906 51.171875 57.042969 51.542969 55.804688 C 51.914062 54.566406 51.878906 53.238281 51.4375 52.023438 L 43.863281 50.253906 Z M 42.214844 58.859375 " fill-opacity="1" fill-rule="nonzero"/><path fill="#0077cc" d="M 43.753906 48.253906 L 52.089844 50.207031 C 53.753906 49.644531 55.203125 48.578125 56.230469 47.152344 C 57.261719 45.722656 57.820312 44.011719 57.832031 42.25 C 57.832031 40.550781 57.316406 38.894531 56.351562 37.496094 C 55.390625 36.101562 54.027344 35.03125 52.445312 34.425781 L 41.542969 44.007812 Z M 43.753906 48.253906 " fill-opacity="1" fill-rule="nonzero"/><path fill="#1c1e23" d="M 79.90625 51.289062 L 80.917969 51.183594 L 80.988281 53.25 C 78.742188 53.589844 76.472656 53.777344 74.199219 53.808594 C 71.691406 53.808594 69.914062 53.082031 68.871094 51.625 C 67.824219 50.167969 67.304688 47.902344 67.304688 44.828125 C 67.304688 38.703125 69.730469 35.640625 74.582031 35.640625 C 76.933594 35.640625 78.683594 36.296875 79.839844 37.613281 C 80.996094 38.929688 81.574219 40.992188 81.578125 43.800781 L 81.441406 45.796875 L 69.949219 45.796875 C 69.949219 47.726562 70.300781 49.160156 70.996094 50.09375 C 71.695312 51.023438 72.90625 51.488281 74.632812 51.488281 C 76.363281 51.496094 78.121094 51.429688 79.90625 51.289062 Z M 78.96875 43.707031 C 78.96875 41.566406 78.625 40.050781 77.941406 39.167969 C 77.257812 38.28125 76.144531 37.839844 74.601562 37.835938 C 73.054688 37.835938 71.894531 38.304688 71.117188 39.234375 C 70.339844 40.164062 69.9375 41.65625 69.914062 43.707031 Z M 78.96875 43.707031 " fill-opacity="1" fill-rule="nonzero"/><path fill="#1c1e23" d="M 85.222656 30.679688 L 87.832031 30.679688 L 87.832031 53.671875 L 85.222656 53.671875 Z M 85.222656 30.679688 " fill-opacity="1" fill-rule="nonzero"/><path fill="#1c1e23" d="M 104.277344 41.261719 L 104.277344 50.074219 C 104.277344 50.957031 106.445312 50.910156 106.445312 50.910156 L 106.3125 53.226562 C 104.476562 53.226562 102.957031 53.382812 102.046875 52.492188 C 100.074219 53.371094 97.941406 53.820312 95.78125 53.804688 C 94.183594 53.804688 92.964844 53.351562 92.125 52.441406 C 91.289062 51.53125 90.871094 50.222656 90.871094 48.519531 C 90.871094 46.816406 91.300781 45.5625 92.160156 44.761719 C 93.019531 43.957031 94.367188 43.464844 96.199219 43.285156 L 101.664062 42.765625 L 101.664062 41.261719 C 101.664062 40.082031 101.410156 39.234375 100.902344 38.710938 C 100.625 38.445312 100.292969 38.242188 99.933594 38.113281 C 99.574219 37.980469 99.191406 37.921875 98.8125 37.945312 L 91.949219 37.945312 L 91.949219 35.636719 L 98.636719 35.636719 C 100.613281 35.636719 102.042969 36.089844 102.9375 37 C 103.832031 37.910156 104.277344 39.332031 104.277344 41.261719 Z M 93.546875 48.386719 C 93.546875 50.53125 94.429688 51.605469 96.191406 51.605469 C 97.78125 51.601562 99.359375 51.332031 100.859375 50.800781 L 101.65625 50.519531 L 101.65625 44.753906 L 96.515625 45.242188 C 95.46875 45.339844 94.714844 45.640625 94.25 46.152344 C 93.785156 46.664062 93.550781 47.40625 93.546875 48.386719 Z M 93.546875 48.386719 " fill-opacity="1" fill-rule="nonzero"/><path fill="#1c1e23" d="M 114.472656 37.980469 C 111.941406 37.980469 110.675781 38.863281 110.675781 40.632812 C 110.675781 41.449219 110.96875 42.027344 111.554688 42.363281 C 112.144531 42.699219 113.464844 43.046875 115.523438 43.410156 C 117.589844 43.773438 119.054688 44.28125 119.910156 44.929688 C 120.769531 45.582031 121.199219 46.804688 121.199219 48.597656 C 121.199219 50.394531 120.625 51.710938 119.476562 52.546875 C 118.328125 53.382812 116.648438 53.804688 114.445312 53.804688 C 113.007812 53.804688 108.199219 53.269531 108.199219 53.269531 L 108.34375 51 C 111.101562 51.265625 113.097656 51.460938 114.445312 51.460938 C 115.792969 51.460938 116.820312 51.246094 117.527344 50.816406 C 118.234375 50.386719 118.585938 49.664062 118.585938 48.652344 C 118.585938 47.636719 118.292969 46.949219 117.683594 46.585938 C 117.070312 46.226562 115.753906 45.882812 113.714844 45.554688 C 111.671875 45.230469 110.21875 44.75 109.359375 44.125 C 108.503906 43.496094 108.070312 42.328125 108.070312 40.628906 C 108.070312 38.929688 108.660156 37.679688 109.867188 36.855469 C 111.074219 36.03125 112.554688 35.632812 114.339844 35.632812 C 115.753906 35.632812 120.667969 35.996094 120.667969 35.996094 L 120.667969 38.28125 C 118.074219 38.164062 115.953125 37.980469 114.472656 37.980469 Z M 114.472656 37.980469 " fill-opacity="1" fill-rule="nonzero"/><path fill="#1c1e23" d="M 133.785156 38.257812 L 128.25 38.257812 L 128.25 46.609375 C 128.25 48.609375 128.394531 49.925781 128.683594 50.554688 C 128.976562 51.183594 129.664062 51.496094 130.753906 51.496094 L 133.855469 51.289062 L 134.03125 53.453125 C 132.855469 53.671875 131.667969 53.800781 130.476562 53.839844 C 128.667969 53.839844 127.414062 53.398438 126.714844 52.511719 C 126.019531 51.625 125.671875 49.9375 125.675781 47.445312 L 125.675781 38.257812 L 123.210938 38.257812 L 123.210938 35.988281 L 125.6875 35.988281 L 125.6875 30.640625 L 128.261719 30.640625 L 128.261719 35.988281 L 133.785156 35.988281 Z M 133.785156 38.257812 " fill-opacity="1" fill-rule="nonzero"/><path fill="#1c1e23" d="M 137.417969 33.753906 L 137.417969 30.714844 L 140.027344 30.714844 L 140.027344 33.753906 Z M 137.417969 53.671875 L 137.417969 35.988281 L 140.027344 35.988281 L 140.027344 53.671875 Z M 137.417969 53.671875 " fill-opacity="1" fill-rule="nonzero"/><g clip-path="url(#9a8c20bd96)"><path fill="#1c1e23" d="M 151.339844 35.636719 C 152.640625 35.691406 153.941406 35.832031 155.226562 36.058594 L 156.0625 36.160156 L 155.957031 38.292969 C 154.59375 38.117188 153.222656 38.011719 151.847656 37.980469 C 149.871094 37.980469 148.53125 38.449219 147.824219 39.394531 C 147.117188 40.335938 146.765625 42.082031 146.761719 44.632812 C 146.761719 47.1875 147.09375 48.964844 147.753906 49.960938 C 148.417969 50.960938 149.796875 51.460938 151.894531 51.464844 L 156.007812 51.152344 L 156.113281 53.320312 C 154.511719 53.589844 152.894531 53.753906 151.273438 53.808594 C 148.558594 53.808594 146.6875 53.109375 145.652344 51.710938 C 144.617188 50.3125 144.101562 47.953125 144.101562 44.636719 C 144.101562 41.316406 144.660156 38.988281 145.773438 37.648438 C 146.886719 36.308594 148.742188 35.636719 151.339844 35.636719 Z M 151.339844 35.636719 " fill-opacity="1" fill-rule="nonzero"/></g></svg>