<svg xmlns="http://www.w3.org/2000/svg" xmlns:xlink="http://www.w3.org/1999/xlink" width="220" zoomAndPan="magnify" viewBox="0 0 165 82.499998" height="110" preserveAspectRatio="xMidYMid meet" version="1.0"><defs><clipPath id="394f0b7f3f"><path d="M 0.496094 0 L 164.503906 0 L 164.503906 82.003906 L 0.496094 82.003906 Z M 0.496094 0 " clip-rule="nonzero"/></clipPath><clipPath id="b1574c054b"><path d="M 19 20.707031 L 44 20.707031 L 44 49 L 19 49 Z M 19 20.707031 " clip-rule="nonzero"/></clipPath><clipPath id="54cb67e158"><path d="M 8.699219 30 L 16 30 L 16 52 L 8.699219 52 Z M 8.699219 30 " clip-rule="nonzero"/></clipPath><clipPath id="fde63c69fe"><path d="M 23 49 L 39 49 L 39 60.960938 L 23 60.960938 Z M 23 49 " clip-rule="nonzero"/></clipPath></defs><g clip-path="url(#394f0b7f3f)"><path fill="#ffffff" d="M 0.496094 0 L 164.503906 0 L 164.503906 82.003906 L 0.496094 82.003906 Z M 0.496094 0 " fill-opacity="1" fill-rule="nonzero"/></g><path stroke-linecap="round" transform="matrix(0.130856, 0, 0, 0.129804, 8.697291, 20.746569)" fill="none" stroke-linejoin="round" d="M 89.211164 187.98981 L 89.211164 260.304252 " stroke="#00fe84" stroke-width="16.299999" stroke-opacity="1" stroke-miterlimit="4"/><g clip-path="url(#b1574c054b)"><path stroke-linecap="round" transform="matrix(0.130856, 0, 0, 0.129804, 8.697291, 20.746569)" fill="none" stroke-linejoin="round" d="M 117.599989 173.785725 L 175.39259 207.1894 L 261.514313 157.414915 L 261.514313 57.896038 L 175.39259 8.09146 L 89.211164 57.896038 L 89.211164 144.294192 " stroke="#00fe84" stroke-width="16.299999" stroke-opacity="1" stroke-miterlimit="4"/></g><path stroke-linecap="round" transform="matrix(0.130856, 0, 0, 0.129804, 8.697291, 20.746569)" fill="none" stroke-linejoin="round" d="M 117.599989 205.413889 L 117.599989 173.785725 L 145.899258 156.602393 " stroke="#00fe84" stroke-width="16.299999" stroke-opacity="1" stroke-miterlimit="4"/><path stroke-linecap="round" transform="matrix(0.130856, 0, 0, 0.129804, 8.697291, 20.746569)" fill="none" stroke-linejoin="round" d="M 406.08537 130.511414 L 441.101239 151.185581 L 441.101239 171.79956 L 406.08537 192.50382 " stroke="#00050b" stroke-width="16.299999" stroke-opacity="1" stroke-miterlimit="4"/><g clip-path="url(#54cb67e158)"><path stroke-linecap="round" transform="matrix(0.130856, 0, 0, 0.129804, 8.697291, 20.746569)" fill="none" stroke-linejoin="round" d="M 47.299588 81.489264 L 8.104502 104.089408 L 8.104502 204.902301 L 46.493596 226.990858 " stroke="#00050b" stroke-width="16.299999" stroke-opacity="1" stroke-miterlimit="4"/></g><g clip-path="url(#fde63c69fe)"><path stroke-linecap="round" transform="matrix(0.130856, 0, 0, 0.129804, 8.697291, 20.746569)" fill="none" stroke-linejoin="round" d="M 117.599989 247.303903 L 117.599989 269.693393 L 175.00452 301.411838 L 219.09526 275.712074 L 218.707189 228.886742 " stroke="#00050b" stroke-width="16.299999" stroke-opacity="1" stroke-miterlimit="4"/></g><path stroke-linecap="round" transform="matrix(0.130856, 0, 0, 0.129804, 8.697291, 20.746569)" fill="none" stroke-linejoin="round" d="M 262.111344 202.58511 L 262.111344 227.201511 L 303.306483 251.396606 L 363.696169 215.404898 L 363.696169 117.210131 L 304.291584 83.114308 " stroke="#00050b" stroke-width="16.299999" stroke-opacity="1" stroke-miterlimit="4"/><path fill="#00050b" d="M 70.933594 46.785156 L 70.933594 36.480469 L 75.027344 36.480469 C 75.8125 36.480469 76.492188 36.621094 77.042969 36.921875 C 77.59375 37.21875 78.023438 37.632812 78.3125 38.152344 C 78.601562 38.671875 78.757812 39.28125 78.757812 39.96875 C 78.757812 40.660156 78.613281 41.253906 78.3125 41.789062 C 78.011719 42.308594 77.578125 42.722656 77.015625 43.007812 C 76.453125 43.292969 75.773438 43.449219 74.976562 43.449219 L 72.359375 43.449219 L 72.359375 41.695312 L 74.621094 41.695312 C 75.042969 41.695312 75.394531 41.617188 75.667969 41.476562 C 75.945312 41.332031 76.152344 41.125 76.285156 40.867188 C 76.414062 40.605469 76.492188 40.308594 76.492188 39.96875 C 76.492188 39.632812 76.429688 39.335938 76.285156 39.074219 C 76.152344 38.816406 75.945312 38.621094 75.65625 38.476562 C 75.382812 38.335938 75.027344 38.269531 74.597656 38.269531 L 73.117188 38.269531 L 73.117188 46.796875 L 70.917969 46.796875 L 70.933594 46.796875 Z M 70.933594 46.785156 " fill-opacity="1" fill-rule="nonzero"/><path fill="#00050b" d="M 80.15625 36.464844 L 82.316406 36.464844 L 82.316406 46.773438 L 80.15625 46.773438 Z M 80.15625 36.464844 " fill-opacity="1" fill-rule="nonzero"/><path fill="#00050b" d="M 86.269531 46.929688 C 85.769531 46.929688 85.328125 46.835938 84.933594 46.667969 C 84.542969 46.5 84.242188 46.238281 84.019531 45.902344 C 83.796875 45.566406 83.675781 45.136719 83.675781 44.628906 C 83.675781 44.125 83.757812 43.839844 83.914062 43.554688 C 84.070312 43.269531 84.292969 43.019531 84.566406 42.851562 C 84.84375 42.671875 85.15625 42.539062 85.507812 42.449219 C 85.863281 42.359375 86.230469 42.292969 86.609375 42.253906 C 87.066406 42.203125 87.433594 42.164062 87.707031 42.125 C 87.984375 42.085938 88.191406 42.019531 88.308594 41.929688 C 88.441406 41.851562 88.492188 41.722656 88.492188 41.554688 L 88.492188 41.527344 C 88.492188 41.203125 88.386719 40.957031 88.191406 40.789062 C 87.996094 40.621094 87.707031 40.527344 87.339844 40.527344 C 86.976562 40.527344 86.648438 40.621094 86.414062 40.789062 C 86.175781 40.957031 86.03125 41.164062 85.953125 41.425781 L 83.953125 41.269531 C 84.058594 40.800781 84.253906 40.386719 84.554688 40.046875 C 84.855469 39.710938 85.234375 39.4375 85.707031 39.257812 C 86.175781 39.074219 86.726562 38.972656 87.339844 38.972656 C 87.957031 38.972656 88.191406 39.023438 88.585938 39.125 C 88.976562 39.230469 89.332031 39.386719 89.644531 39.59375 C 89.957031 39.800781 90.195312 40.074219 90.378906 40.410156 C 90.5625 40.738281 90.652344 41.140625 90.652344 41.59375 L 90.652344 46.8125 L 88.597656 46.8125 L 88.597656 45.734375 L 88.53125 45.734375 C 88.402344 45.980469 88.246094 46.1875 88.035156 46.371094 C 87.824219 46.550781 87.578125 46.695312 87.277344 46.796875 C 86.988281 46.902344 86.648438 46.953125 86.253906 46.953125 M 86.882812 45.449219 C 87.199219 45.449219 87.484375 45.382812 87.722656 45.253906 C 87.96875 45.125 88.152344 44.953125 88.296875 44.746094 C 88.441406 44.527344 88.507812 44.292969 88.507812 44.019531 L 88.507812 43.203125 C 88.441406 43.242188 88.347656 43.28125 88.230469 43.320312 C 88.113281 43.359375 87.984375 43.382812 87.839844 43.410156 C 87.695312 43.4375 87.550781 43.460938 87.40625 43.488281 C 87.261719 43.515625 87.132812 43.527344 87.015625 43.539062 C 86.765625 43.578125 86.542969 43.632812 86.347656 43.722656 C 86.164062 43.800781 86.007812 43.917969 85.902344 44.046875 C 85.796875 44.175781 85.746094 44.34375 85.746094 44.550781 C 85.746094 44.761719 85.851562 45.070312 86.074219 45.214844 C 86.28125 45.371094 86.554688 45.449219 86.898438 45.449219 " fill-opacity="1" fill-rule="nonzero"/><path fill="#00050b" d="M 96.476562 40.660156 L 91.777344 40.660156 L 91.777344 39.050781 L 96.476562 39.050781 Z M 92.851562 37.191406 L 95.011719 37.191406 L 95.011719 44.398438 C 95.011719 44.589844 95.035156 44.746094 95.101562 44.851562 C 95.167969 44.953125 95.246094 45.03125 95.363281 45.085938 C 95.46875 45.125 95.597656 45.148438 95.742188 45.148438 C 95.886719 45.148438 95.953125 45.148438 96.042969 45.125 C 96.148438 45.109375 96.226562 45.085938 96.277344 45.085938 L 96.621094 46.679688 C 96.515625 46.71875 96.359375 46.757812 96.160156 46.796875 C 95.964844 46.835938 95.730469 46.875 95.441406 46.875 C 94.917969 46.902344 94.460938 46.824219 94.066406 46.667969 C 93.675781 46.511719 93.375 46.265625 93.152344 45.929688 C 92.929688 45.589844 92.824219 45.175781 92.835938 44.667969 L 92.835938 37.179688 L 92.851562 37.179688 Z M 92.851562 37.191406 " fill-opacity="1" fill-rule="nonzero"/><path fill="#00050b" d="M 102.074219 40.660156 L 97.261719 40.660156 L 97.261719 39.050781 L 102.074219 39.050781 Z M 98.359375 46.785156 L 98.359375 38.492188 C 98.359375 37.933594 98.464844 37.464844 98.6875 37.101562 C 98.910156 36.738281 99.210938 36.453125 99.601562 36.269531 C 99.980469 36.089844 100.425781 36 100.910156 36 C 101.394531 36 101.550781 36.023438 101.828125 36.078125 C 102.101562 36.128906 102.3125 36.167969 102.441406 36.207031 L 102.0625 37.816406 C 101.984375 37.789062 101.878906 37.765625 101.75 37.738281 C 101.632812 37.710938 101.5 37.699219 101.371094 37.699219 C 101.054688 37.699219 100.832031 37.777344 100.703125 37.917969 C 100.570312 38.0625 100.519531 38.269531 100.519531 38.53125 L 100.519531 46.785156 Z M 98.359375 46.785156 " fill-opacity="1" fill-rule="nonzero"/><path fill="#00050b" d="M 106.917969 46.929688 C 106.132812 46.929688 105.453125 46.757812 104.875 46.421875 C 104.300781 46.085938 103.855469 45.617188 103.554688 45.019531 C 103.242188 44.421875 103.082031 43.722656 103.082031 42.929688 C 103.082031 42.136719 103.242188 41.4375 103.554688 40.828125 C 103.867188 40.230469 104.3125 39.761719 104.875 39.425781 C 105.453125 39.089844 106.132812 38.917969 106.917969 38.917969 C 107.703125 38.917969 108.382812 39.089844 108.960938 39.425781 C 109.535156 39.761719 109.980469 40.230469 110.28125 40.828125 C 110.59375 41.425781 110.75 42.125 110.75 42.929688 C 110.75 43.734375 110.59375 44.421875 110.28125 45.019531 C 109.964844 45.617188 109.523438 46.085938 108.960938 46.421875 C 108.382812 46.757812 107.703125 46.929688 106.917969 46.929688 M 106.929688 45.265625 C 107.285156 45.265625 107.585938 45.164062 107.832031 44.96875 C 108.070312 44.761719 108.253906 44.488281 108.382812 44.136719 C 108.5 43.785156 108.566406 43.382812 108.566406 42.929688 C 108.566406 42.476562 108.5 42.074219 108.382812 41.722656 C 108.265625 41.371094 108.082031 41.085938 107.832031 40.890625 C 107.585938 40.699219 107.296875 40.582031 106.929688 40.582031 C 106.5625 40.582031 106.261719 40.683594 106.015625 40.890625 C 105.765625 41.101562 105.582031 41.371094 105.464844 41.722656 C 105.347656 42.074219 105.28125 42.476562 105.28125 42.929688 C 105.28125 43.382812 105.347656 43.785156 105.464844 44.136719 C 105.582031 44.488281 105.777344 44.773438 106.015625 44.96875 C 106.261719 45.175781 106.5625 45.265625 106.929688 45.265625 " fill-opacity="1" fill-rule="nonzero"/><path fill="#00050b" d="M 112.164062 46.785156 L 112.164062 39.050781 L 114.257812 39.050781 L 114.257812 40.398438 L 114.335938 40.398438 C 114.480469 39.917969 114.714844 39.554688 115.058594 39.308594 C 115.398438 39.0625 115.777344 38.933594 116.207031 38.933594 C 116.640625 38.933594 116.429688 38.933594 116.5625 38.957031 C 116.691406 38.972656 116.796875 38.984375 116.890625 39.011719 L 116.890625 40.917969 C 116.785156 40.890625 116.652344 40.867188 116.46875 40.839844 C 116.285156 40.8125 116.128906 40.800781 115.972656 40.800781 C 115.660156 40.800781 115.371094 40.867188 115.121094 41.007812 C 114.875 41.140625 114.675781 41.332031 114.535156 41.582031 C 114.390625 41.828125 114.324219 42.097656 114.324219 42.410156 L 114.324219 46.785156 Z M 112.164062 46.785156 " fill-opacity="1" fill-rule="nonzero"/><path fill="#00050b" d="M 118 46.785156 L 118 39.050781 L 120.054688 39.050781 L 120.054688 40.410156 L 120.148438 40.410156 C 120.304688 39.957031 120.578125 39.605469 120.957031 39.335938 C 121.339844 39.074219 121.796875 38.945312 122.320312 38.945312 C 122.84375 38.945312 123.3125 39.074219 123.679688 39.335938 C 124.058594 39.59375 124.308594 39.957031 124.425781 40.398438 L 124.503906 40.398438 C 124.660156 39.957031 124.949219 39.605469 125.367188 39.335938 C 125.789062 39.0625 126.285156 38.933594 126.847656 38.933594 C 127.410156 38.933594 128.167969 39.164062 128.625 39.621094 C 129.085938 40.074219 129.308594 40.722656 129.308594 41.566406 L 129.308594 46.773438 L 127.148438 46.773438 L 127.148438 41.996094 C 127.148438 41.566406 127.03125 41.242188 126.808594 41.035156 C 126.570312 40.8125 126.285156 40.710938 125.945312 40.710938 C 125.605469 40.710938 125.25 40.828125 125.027344 41.085938 C 124.804688 41.332031 124.699219 41.65625 124.699219 42.058594 L 124.699219 46.785156 L 122.605469 46.785156 L 122.605469 41.957031 C 122.605469 41.582031 122.503906 41.28125 122.28125 41.046875 C 122.058594 40.828125 121.769531 40.710938 121.417969 40.710938 C 121.0625 40.710938 120.957031 40.773438 120.773438 40.890625 C 120.578125 41.007812 120.433594 41.179688 120.316406 41.386719 C 120.199219 41.59375 120.148438 41.851562 120.148438 42.136719 L 120.148438 46.785156 L 117.988281 46.785156 Z M 118 46.785156 " fill-opacity="1" fill-rule="nonzero"/><path fill="#00050b" d="M 133.257812 46.929688 C 132.761719 46.929688 132.316406 46.835938 131.925781 46.667969 C 131.53125 46.5 131.230469 46.238281 131.007812 45.902344 C 130.785156 45.566406 130.667969 45.136719 130.667969 44.628906 C 130.667969 44.125 130.746094 43.839844 130.902344 43.554688 C 131.0625 43.269531 131.28125 43.019531 131.558594 42.851562 C 131.832031 42.671875 132.148438 42.539062 132.5 42.449219 C 132.851562 42.359375 133.21875 42.292969 133.597656 42.253906 C 134.058594 42.203125 134.421875 42.164062 134.699219 42.125 C 134.972656 42.085938 135.183594 42.019531 135.300781 41.929688 C 135.429688 41.851562 135.484375 41.722656 135.484375 41.554688 L 135.484375 41.527344 C 135.484375 41.203125 135.378906 40.957031 135.183594 40.789062 C 134.984375 40.621094 134.699219 40.527344 134.332031 40.527344 C 133.964844 40.527344 133.636719 40.621094 133.402344 40.789062 C 133.167969 40.957031 133.023438 41.164062 132.945312 41.425781 L 130.941406 41.269531 C 131.046875 40.800781 131.242188 40.386719 131.542969 40.046875 C 131.847656 39.710938 132.226562 39.4375 132.695312 39.257812 C 133.167969 39.074219 133.71875 38.972656 134.332031 38.972656 C 134.945312 38.972656 135.183594 39.023438 135.574219 39.125 C 135.96875 39.230469 136.320312 39.386719 136.636719 39.59375 C 136.949219 39.800781 137.183594 40.074219 137.367188 40.410156 C 137.550781 40.738281 137.644531 41.140625 137.644531 41.59375 L 137.644531 46.8125 L 135.589844 46.8125 L 135.589844 45.734375 L 135.523438 45.734375 C 135.390625 45.980469 135.234375 46.1875 135.027344 46.371094 C 134.816406 46.550781 134.566406 46.695312 134.265625 46.796875 C 133.980469 46.902344 133.636719 46.953125 133.246094 46.953125 M 133.875 45.449219 C 134.1875 45.449219 134.476562 45.382812 134.710938 45.253906 C 134.960938 45.125 135.144531 44.953125 135.289062 44.746094 C 135.429688 44.527344 135.496094 44.292969 135.496094 44.019531 L 135.496094 43.203125 C 135.429688 43.242188 135.339844 43.28125 135.222656 43.320312 C 135.105469 43.359375 134.972656 43.382812 134.828125 43.410156 C 134.683594 43.4375 134.542969 43.460938 134.398438 43.488281 C 134.253906 43.515625 134.121094 43.527344 134.003906 43.539062 C 133.757812 43.578125 133.535156 43.632812 133.335938 43.722656 C 133.152344 43.800781 132.996094 43.917969 132.894531 44.046875 C 132.789062 44.175781 132.734375 44.34375 132.734375 44.550781 C 132.734375 44.761719 132.839844 45.070312 133.0625 45.214844 C 133.273438 45.371094 133.546875 45.449219 133.886719 45.449219 " fill-opacity="1" fill-rule="nonzero"/><path fill="#00050b" d="M 143.480469 40.660156 L 138.78125 40.660156 L 138.78125 39.050781 L 143.480469 39.050781 Z M 139.839844 37.191406 L 142 37.191406 L 142 44.398438 C 142 44.589844 142.027344 44.746094 142.089844 44.851562 C 142.15625 44.953125 142.234375 45.03125 142.351562 45.085938 C 142.457031 45.125 142.589844 45.148438 142.734375 45.148438 C 142.875 45.148438 142.941406 45.148438 143.035156 45.125 C 143.136719 45.109375 143.21875 45.085938 143.269531 45.085938 L 143.609375 46.679688 C 143.503906 46.71875 143.347656 46.757812 143.152344 46.796875 C 142.957031 46.835938 142.71875 46.875 142.433594 46.875 C 141.910156 46.902344 141.449219 46.824219 141.058594 46.667969 C 140.664062 46.511719 140.363281 46.265625 140.140625 45.929688 C 139.917969 45.589844 139.816406 45.175781 139.828125 44.667969 L 139.828125 37.179688 Z M 139.839844 37.191406 " fill-opacity="1" fill-rule="nonzero"/><path fill="#00050b" d="M 145.964844 38.050781 C 145.636719 38.050781 145.363281 37.945312 145.140625 37.738281 C 144.917969 37.53125 144.800781 37.269531 144.800781 36.972656 C 144.800781 36.671875 144.917969 36.414062 145.140625 36.207031 C 145.375 36 145.652344 35.882812 145.964844 35.882812 C 146.277344 35.882812 146.566406 35.984375 146.789062 36.191406 C 147.011719 36.402344 147.128906 36.660156 147.128906 36.960938 C 147.128906 37.257812 147.011719 37.515625 146.789062 37.726562 C 146.566406 37.933594 146.292969 38.050781 145.964844 38.050781 M 144.878906 39.050781 L 147.039062 39.050781 L 147.039062 46.785156 L 144.878906 46.785156 Z M 144.878906 39.050781 " fill-opacity="1" fill-rule="nonzero"/><path fill="#00050b" d="M 152.285156 46.929688 C 151.488281 46.929688 150.808594 46.757812 150.230469 46.421875 C 149.65625 46.085938 149.222656 45.617188 148.910156 45.019531 C 148.609375 44.421875 148.453125 43.722656 148.453125 42.941406 C 148.453125 42.164062 148.609375 41.449219 148.910156 40.851562 C 149.222656 40.257812 149.65625 39.789062 150.230469 39.453125 C 150.808594 39.113281 151.488281 38.945312 152.273438 38.945312 C 153.058594 38.945312 153.542969 39.0625 154.066406 39.308594 C 154.574219 39.554688 154.980469 39.894531 155.28125 40.335938 C 155.582031 40.773438 155.738281 41.292969 155.777344 41.890625 L 153.738281 41.890625 C 153.6875 41.503906 153.527344 41.191406 153.28125 40.957031 C 153.03125 40.722656 152.71875 40.605469 152.324219 40.605469 C 151.933594 40.605469 151.695312 40.699219 151.449219 40.878906 C 151.199219 41.0625 151.003906 41.320312 150.871094 41.65625 C 150.726562 41.996094 150.664062 42.410156 150.664062 42.902344 C 150.664062 43.398438 150.726562 43.8125 150.871094 44.164062 C 151.003906 44.515625 151.199219 44.773438 151.449219 44.953125 C 151.695312 45.136719 151.996094 45.226562 152.324219 45.226562 C 152.652344 45.226562 152.796875 45.175781 152.992188 45.070312 C 153.1875 44.96875 153.359375 44.824219 153.488281 44.628906 C 153.621094 44.4375 153.699219 44.203125 153.75 43.929688 L 155.792969 43.929688 C 155.753906 44.527344 155.597656 45.046875 155.308594 45.488281 C 155.019531 45.941406 154.613281 46.277344 154.117188 46.539062 C 153.605469 46.785156 153.003906 46.914062 152.3125 46.914062 " fill-opacity="1" fill-rule="nonzero"/></svg>