<svg xmlns="http://www.w3.org/2000/svg" xmlns:xlink="http://www.w3.org/1999/xlink" width="220" zoomAndPan="magnify" viewBox="0 0 165 82.499998" height="110" preserveAspectRatio="xMidYMid meet" version="1.0"><defs><clipPath id="aebed10bfd"><path d="M 0.496094 0 L 164.503906 0 L 164.503906 82.003906 L 0.496094 82.003906 Z M 0.496094 0 " clip-rule="nonzero"/></clipPath><clipPath id="86474e7ad5"><path d="M 64 25 L 156.300781 25 L 156.300781 61.085938 L 64 61.085938 Z M 64 25 " clip-rule="nonzero"/></clipPath><clipPath id="36fc771ed6"><path d="M 8.699219 20.828125 L 64 20.828125 L 64 54 L 8.699219 54 Z M 8.699219 20.828125 " clip-rule="nonzero"/></clipPath></defs><g clip-path="url(#aebed10bfd)"><path fill="#ffffff" d="M 0.496094 0 L 164.503906 0 L 164.503906 89.457031 L 0.496094 89.457031 Z M 0.496094 0 " fill-opacity="1" fill-rule="nonzero"/><path fill="#ffffff" d="M 0.496094 0 L 164.503906 0 L 164.503906 82.003906 L 0.496094 82.003906 Z M 0.496094 0 " fill-opacity="1" fill-rule="nonzero"/><path fill="#ffffff" d="M 0.496094 0 L 164.503906 0 L 164.503906 82.003906 L 0.496094 82.003906 Z M 0.496094 0 " fill-opacity="1" fill-rule="nonzero"/></g><g clip-path="url(#86474e7ad5)"><path fill="#4d4d4d" d="M 155.214844 33.984375 C 154.523438 32.324219 153.488281 30.917969 152.101562 29.769531 C 150.609375 28.5625 148.9375 27.710938 147.085938 27.210938 C 144.863281 26.609375 142.605469 26.328125 140.304688 26.363281 L 132.820312 26.363281 L 132.820312 47.960938 L 124.609375 26.363281 L 118.136719 26.363281 L 112.953125 40.003906 C 112.953125 39.949219 112.953125 39.894531 112.953125 39.84375 C 112.964844 37.933594 112.59375 36.101562 111.839844 34.347656 C 111.125 32.648438 110.113281 31.148438 108.808594 29.84375 C 107.503906 28.542969 106 27.53125 104.296875 26.816406 C 102.539062 26.078125 100.703125 25.707031 98.792969 25.707031 C 96.886719 25.707031 95.050781 26.078125 93.292969 26.816406 C 91.589844 27.535156 90.085938 28.542969 88.78125 29.847656 C 87.476562 31.148438 86.464844 32.652344 85.746094 34.347656 C 85.53125 33.316406 85.152344 32.347656 84.609375 31.445312 C 84.0625 30.542969 83.382812 29.753906 82.570312 29.082031 C 81.425781 28.15625 80.152344 27.484375 78.742188 27.0625 C 77.179688 26.589844 75.582031 26.363281 73.949219 26.375 L 64.644531 26.375 L 64.644531 53.308594 L 73.261719 53.308594 L 73.261719 46.484375 L 80.976562 59.496094 L 86.996094 61.011719 L 88.5 55.046875 L 82.363281 44.425781 C 83.054688 43.921875 83.664062 43.332031 84.1875 42.652344 C 84.394531 42.355469 84.585938 42.050781 84.761719 41.738281 C 84.925781 42.980469 85.253906 44.179688 85.746094 45.332031 C 86.464844 47.03125 87.472656 48.53125 88.78125 49.835938 C 90.085938 51.140625 91.589844 52.148438 93.292969 52.867188 C 95.050781 53.605469 96.886719 53.976562 98.792969 53.976562 C 100.703125 53.976562 102.539062 53.605469 104.296875 52.867188 C 105.996094 52.144531 107.503906 51.136719 108.8125 49.835938 C 109.054688 49.597656 109.28125 49.347656 109.5 49.085938 L 107.898438 53.308594 L 116.394531 53.308594 L 117.285156 50.886719 L 125.460938 50.886719 L 126.351562 53.308594 L 140.304688 53.308594 C 142.605469 53.339844 144.867188 53.050781 147.085938 52.441406 C 148.933594 51.933594 150.609375 51.078125 152.101562 49.875 C 153.488281 48.726562 154.527344 47.316406 155.214844 45.65625 C 155.96875 43.785156 156.328125 41.839844 156.289062 39.824219 C 156.328125 37.804688 155.96875 35.859375 155.214844 33.984375 Z M 76.316406 38.933594 C 75.515625 39.421875 74.644531 39.648438 73.703125 39.621094 L 73.261719 39.621094 L 73.261719 33.640625 L 73.703125 33.640625 C 74.644531 33.613281 75.515625 33.84375 76.316406 34.328125 C 76.6875 34.589844 76.972656 34.925781 77.164062 35.335938 C 77.355469 35.75 77.429688 36.179688 77.390625 36.632812 C 77.429688 37.082031 77.355469 37.515625 77.164062 37.925781 C 76.972656 38.339844 76.6875 38.675781 76.316406 38.933594 Z M 104.015625 42.042969 C 103.726562 42.71875 103.324219 43.316406 102.800781 43.839844 C 102.28125 44.359375 101.679688 44.761719 101 45.050781 C 100.292969 45.347656 99.554688 45.496094 98.789062 45.496094 C 98.019531 45.496094 97.28125 45.347656 96.574219 45.050781 C 95.902344 44.761719 95.3125 44.355469 94.796875 43.839844 C 94.273438 43.320312 93.871094 42.71875 93.582031 42.042969 C 93.28125 41.335938 93.132812 40.601562 93.132812 39.832031 C 93.132812 39.066406 93.28125 38.328125 93.582031 37.625 C 93.871094 36.945312 94.277344 36.347656 94.796875 35.828125 C 95.320312 35.304688 95.917969 34.902344 96.597656 34.613281 C 97.304688 34.3125 98.042969 34.164062 98.8125 34.164062 C 99.582031 34.164062 100.320312 34.3125 101.027344 34.613281 C 101.707031 34.898438 102.304688 35.304688 102.828125 35.828125 C 103.347656 36.347656 103.753906 36.945312 104.042969 37.625 C 104.339844 38.328125 104.488281 39.066406 104.488281 39.832031 C 104.488281 40.597656 104.339844 41.335938 104.042969 42.042969 Z M 119.550781 44.949219 L 121.371094 40.226562 L 123.191406 44.949219 Z M 146.117188 44.203125 C 145.011719 45.160156 143.449219 45.636719 141.421875 45.636719 L 141.421875 34.050781 C 143.449219 34.050781 145.011719 34.519531 146.117188 35.457031 C 147.21875 36.398438 147.769531 37.851562 147.777344 39.824219 C 147.789062 41.785156 147.238281 43.246094 146.128906 44.203125 Z M 146.117188 44.203125 " fill-opacity="1" fill-rule="nonzero"/></g><g clip-path="url(#36fc771ed6)"><path fill="#ff4758" d="M 51.992188 46.242188 L 51.992188 43.132812 L 59.152344 43.132812 L 59.152344 36.429688 L 51.992188 36.429688 L 51.992188 33.441406 L 62.785156 33.441406 L 62.785156 26.375 L 36.226562 26.375 L 33.109375 35.78125 L 29.992188 26.375 L 24.089844 26.375 L 20.96875 35.78125 L 16.960938 23.660156 L 11.476562 20.902344 L 8.710938 26.375 L 17.609375 53.308594 L 24.332031 53.308594 L 27.039062 45.152344 L 29.75 53.308594 L 36.464844 53.308594 L 43.371094 32.417969 L 43.371094 53.308594 L 63.0625 53.308594 L 63.0625 46.242188 Z M 51.992188 46.242188 " fill-opacity="1" fill-rule="nonzero"/></g></svg>