<svg xmlns="http://www.w3.org/2000/svg" xmlns:xlink="http://www.w3.org/1999/xlink" width="220" zoomAndPan="magnify" viewBox="0 0 165 82.499998" height="110" preserveAspectRatio="xMidYMid meet" version="1.0"><defs><clipPath id="d1c0f6a972"><path d="M 0.496094 0 L 164.503906 0 L 164.503906 82.003906 L 0.496094 82.003906 Z M 0.496094 0 " clip-rule="nonzero"/></clipPath></defs><g clip-path="url(#d1c0f6a972)"><path fill="#ffffff" d="M 0.496094 0 L 164.503906 0 L 164.503906 82.003906 L 0.496094 82.003906 Z M 0.496094 0 " fill-opacity="1" fill-rule="nonzero"/></g><path fill="#000e38" d="M 14.933594 30.792969 L 17.988281 30.792969 L 27.914062 45.207031 L 27.914062 30.792969 L 31.207031 30.792969 L 31.207031 51.132812 L 28.148438 51.132812 L 18.222656 36.71875 L 18.222656 51.132812 L 14.933594 51.132812 Z M 14.933594 30.792969 " fill-opacity="1" fill-rule="nonzero"/><path fill="#000e38" d="M 33.347656 43.722656 C 33.347656 39.132812 36.285156 36.082031 40.683594 36.082031 C 45.078125 36.082031 47.871094 38.8125 47.960938 43.171875 C 47.960938 43.550781 47.929688 43.957031 47.875 44.363281 L 36.636719 44.363281 L 36.636719 44.566406 C 36.722656 47.09375 38.324219 48.75 40.800781 48.75 C 42.722656 48.75 44.117188 47.792969 44.554688 46.132812 L 47.699219 46.132812 C 47.175781 49.066406 44.671875 51.304688 40.976562 51.304688 C 36.289062 51.304688 33.347656 48.28125 33.347656 43.722656 Z M 44.699219 42.066406 C 44.4375 39.859375 42.894531 38.609375 40.710938 38.609375 C 38.703125 38.609375 36.984375 39.945312 36.753906 42.066406 Z M 44.699219 42.066406 " fill-opacity="1" fill-rule="nonzero"/><path fill="#000e38" d="M 56.546875 36.082031 C 60.503906 36.082031 62.773438 37.972656 62.773438 41.484375 L 62.773438 47.445312 C 62.773438 48.199219 63.09375 48.402344 63.734375 48.402344 L 64.375 48.402344 L 64.375 51.132812 L 62.714844 51.132812 C 60.675781 51.132812 59.980469 50.230469 59.980469 48.75 C 58.988281 50.261719 57.476562 51.304688 55.0625 51.304688 C 51.800781 51.304688 49.527344 49.707031 49.527344 46.945312 C 49.527344 43.898438 51.742188 42.179688 55.90625 42.179688 L 59.660156 42.179688 L 59.660156 41.277344 C 59.660156 39.621094 58.46875 38.605469 56.398438 38.605469 C 54.535156 38.605469 53.285156 39.476562 53.050781 40.785156 L 49.96875 40.785156 C 50.285156 37.878906 52.789062 36.078125 56.546875 36.078125 Z M 55.496094 48.867188 C 58.117188 48.867188 59.628906 47.328125 59.660156 45.03125 L 59.660156 44.507812 L 55.757812 44.507812 C 53.808594 44.507812 52.730469 45.234375 52.730469 46.746094 C 52.730469 47.996094 53.777344 48.867188 55.496094 48.867188 Z M 55.496094 48.867188 " fill-opacity="1" fill-rule="nonzero"/><path fill="#000e38" d="M 83.089844 33.554688 L 85.679688 33.554688 L 85.679688 30.792969 L 82.683594 30.792969 C 79.800781 30.792969 78.519531 32.1875 78.519531 34.859375 L 78.519531 36.253906 L 74.007812 36.253906 C 71.566406 36.253906 70.371094 37.242188 69.613281 38.492188 L 69.265625 36.253906 L 66.46875 36.253906 L 66.46875 51.132812 L 69.613281 51.132812 L 69.613281 43.664062 C 69.613281 41.371094 70.515625 39.1875 73.308594 39.1875 L 78.519531 39.1875 L 78.519531 51.132812 L 81.691406 51.132812 L 81.691406 39.1875 L 85.679688 39.1875 L 85.679688 36.253906 L 81.636719 36.253906 L 81.636719 35.003906 C 81.636719 33.988281 82.070312 33.554688 83.089844 33.554688 Z M 83.089844 33.554688 " fill-opacity="1" fill-rule="nonzero"/><path fill="#000e38" d="M 93.65625 36.082031 C 98.195312 36.082031 101.253906 39.160156 101.253906 43.695312 C 101.253906 48.230469 98.199219 51.3125 93.65625 51.3125 C 89.113281 51.3125 86.058594 48.261719 86.058594 43.695312 C 86.058594 39.132812 89.113281 36.082031 93.65625 36.082031 Z M 98.050781 43.695312 C 98.050781 40.820312 96.304688 38.757812 93.65625 38.757812 C 91.003906 38.757812 89.289062 40.820312 89.289062 43.695312 C 89.289062 46.574219 91.003906 48.636719 93.65625 48.636719 C 96.304688 48.636719 98.050781 46.574219 98.050781 43.695312 Z M 98.050781 43.695312 " fill-opacity="1" fill-rule="nonzero"/><path fill="#000e38" d="M 106.085938 36.253906 L 106.4375 38.492188 C 107.191406 37.242188 108.386719 36.253906 110.832031 36.253906 L 111.53125 36.253906 L 111.53125 39.1875 L 110.132812 39.1875 C 107.335938 39.1875 106.4375 41.367188 106.4375 43.664062 L 106.4375 51.132812 L 103.292969 51.132812 L 103.292969 36.253906 Z M 106.085938 36.253906 " fill-opacity="1" fill-rule="nonzero"/><path fill="#000e38" d="M 113.453125 36.253906 L 116.1875 36.253906 L 116.539062 38.199219 C 117.382812 37.097656 118.664062 36.109375 120.902344 36.078125 C 122.851562 36.078125 124.601562 36.863281 125.503906 38.78125 C 126.464844 37.152344 128.152344 36.078125 130.597656 36.078125 C 133.683594 36.078125 136.1875 37.851562 136.1875 42.558594 L 136.1875 51.132812 L 133.042969 51.132812 L 133.042969 42.761719 C 133.042969 40.148438 131.964844 38.78125 129.925781 38.78125 C 127.773438 38.78125 126.402344 40.410156 126.402344 43.082031 L 126.402344 51.128906 L 123.230469 51.128906 L 123.230469 42.761719 C 123.230469 40.144531 122.152344 38.777344 120.085938 38.777344 C 118.015625 38.777344 116.589844 40.523438 116.589844 43.167969 L 116.589844 51.128906 L 113.445312 51.128906 L 113.445312 36.253906 Z M 113.453125 36.253906 " fill-opacity="1" fill-rule="nonzero"/><path fill="#00e5a4" d="M 137.878906 51.132812 L 150.125 51.132812 L 150.125 54.125 L 137.878906 54.125 Z M 137.878906 51.132812 " fill-opacity="1" fill-rule="nonzero"/></svg>